solid OpenSCAD_Model
  facet normal 0.994522 0.104529 0
    outer loop
      vertex 5.86889 1.24747 25
      vertex 5.94745 0.5 23
      vertex 5.86889 1.24747 22.7228
    endloop
  endfacet
  facet normal 0.994522 0.104529 6.50239e-08
    outer loop
      vertex 6 0 25
      vertex 5.94745 0.5 23
      vertex 5.86889 1.24747 25
    endloop
  endfacet
  facet normal 0.994522 0.104529 0
    outer loop
      vertex 5.94745 0.5 23
      vertex 6 0 25
      vertex 6 0 23
    endloop
  endfacet
  facet normal 0.994522 0.104529 0
    outer loop
      vertex 5.86889 1.24747 22.7228
      vertex 5.94745 0.5 23
      vertex 5.94745 0.5 22.8889
    endloop
  endfacet
  facet normal -0.994522 0.104529 0
    outer loop
      vertex -5.94745 0.5 23
      vertex -5.86889 1.24747 22.7228
      vertex -5.94745 0.5 22.8889
    endloop
  endfacet
  facet normal -0.994522 0.104529 0
    outer loop
      vertex -5.86889 1.24747 22.7228
      vertex -5.94745 0.5 23
      vertex -5.86889 1.24747 25
    endloop
  endfacet
  facet normal -0.994522 0.104529 0
    outer loop
      vertex -6 0 25
      vertex -5.94745 0.5 23
      vertex -6 0 23
    endloop
  endfacet
  facet normal -0.994522 0.104529 6.50239e-08
    outer loop
      vertex -5.94745 0.5 23
      vertex -6 0 25
      vertex -5.86889 1.24747 25
    endloop
  endfacet
  facet normal 0 1 -0
    outer loop
      vertex 0.627171 5.96713 21.674
      vertex -0.627171 5.96713 25
      vertex 0.627171 5.96713 25
    endloop
  endfacet
  facet normal 0 1 0
    outer loop
      vertex -0.627171 5.96713 25
      vertex 0.627171 5.96713 21.674
      vertex -0.627171 5.96713 21.674
    endloop
  endfacet
  facet normal 0 -1 0
    outer loop
      vertex -0.627171 -5.96713 23
      vertex 0.627171 -5.96713 25
      vertex -0.627171 -5.96713 25
    endloop
  endfacet
  facet normal 0 -1 -0
    outer loop
      vertex 0.627171 -5.96713 25
      vertex -0.627171 -5.96713 23
      vertex 0.627171 -5.96713 23
    endloop
  endfacet
  facet normal 0.587786 0.809017 -0
    outer loop
      vertex 4.01478 4.45887 22.0091
      vertex 3 5.19615 25
      vertex 4.01478 4.45887 25
    endloop
  endfacet
  facet normal 0.587786 0.809017 0
    outer loop
      vertex 3 5.19615 25
      vertex 4.01478 4.45887 22.0091
      vertex 3 5.19615 21.8453
    endloop
  endfacet
  facet normal 0.406737 0.913545 0
    outer loop
      vertex 2.34 5.49 21.78
      vertex 3 5.19615 25
      vertex 3 5.19615 21.8453
    endloop
  endfacet
  facet normal 0.406737 0.913545 -4.11657e-08
    outer loop
      vertex 3 5.19615 25
      vertex 2.34 5.49 21.78
      vertex 1.8541 5.70634 25
    endloop
  endfacet
  facet normal 0.406737 0.913545 0
    outer loop
      vertex 1.8541 5.70634 25
      vertex 2.34 5.49 21.78
      vertex 1.8541 5.70634 21.7319
    endloop
  endfacet
  facet normal -0.743145 0.669131 0
    outer loop
      vertex -4.8541 3.52671 22.2163
      vertex -4.01478 4.45887 25
      vertex -4.01478 4.45887 22.0091
    endloop
  endfacet
  facet normal -0.743145 0.669131 0
    outer loop
      vertex -4.01478 4.45887 25
      vertex -4.8541 3.52671 22.2163
      vertex -4.8541 3.52671 25
    endloop
  endfacet
  facet normal -0.866025 0.5 0
    outer loop
      vertex -5.48127 2.44042 22.4577
      vertex -4.8541 3.52671 25
      vertex -4.8541 3.52671 22.2163
    endloop
  endfacet
  facet normal -0.866025 0.5 0
    outer loop
      vertex -4.8541 3.52671 25
      vertex -5.48127 2.44042 22.4577
      vertex -5.48127 2.44042 25
    endloop
  endfacet
  facet normal -0.406737 0.913545 0
    outer loop
      vertex -1.8541 5.70634 25
      vertex -3 5.19615 21.8453
      vertex -3 5.19615 25
    endloop
  endfacet
  facet normal -0.406737 0.913545 0
    outer loop
      vertex -3 5.19615 21.8453
      vertex -1.8541 5.70634 25
      vertex -1.8541 5.70634 21.7319
    endloop
  endfacet
  facet normal 0.951057 -0.309017 0
    outer loop
      vertex 5.48127 -2.44042 25
      vertex 5.86889 -1.24747 23
      vertex 5.86889 -1.24747 25
    endloop
  endfacet
  facet normal 0.951057 -0.309017 0
    outer loop
      vertex 5.86889 -1.24747 23
      vertex 5.48127 -2.44042 25
      vertex 5.48127 -2.44042 23
    endloop
  endfacet
  facet normal 0.866025 0.5 -0
    outer loop
      vertex 5.48127 2.44042 22.4577
      vertex 4.8541 3.52671 25
      vertex 5.48127 2.44042 25
    endloop
  endfacet
  facet normal 0.866025 0.5 0
    outer loop
      vertex 4.8541 3.52671 25
      vertex 5.48127 2.44042 22.4577
      vertex 4.8541 3.52671 22.2163
    endloop
  endfacet
  facet normal 0.951057 0.309017 -0
    outer loop
      vertex 5.86889 1.24747 22.7228
      vertex 5.48127 2.44042 25
      vertex 5.86889 1.24747 25
    endloop
  endfacet
  facet normal 0.951057 0.309017 0
    outer loop
      vertex 5.48127 2.44042 25
      vertex 5.86889 1.24747 22.7228
      vertex 5.48127 2.44042 22.4577
    endloop
  endfacet
  facet normal 0.743145 0.669131 -0
    outer loop
      vertex 4.8541 3.52671 22.2163
      vertex 4.01478 4.45887 25
      vertex 4.8541 3.52671 25
    endloop
  endfacet
  facet normal 0.743145 0.669131 0
    outer loop
      vertex 4.01478 4.45887 25
      vertex 4.8541 3.52671 22.2163
      vertex 4.01478 4.45887 22.0091
    endloop
  endfacet
  facet normal 0.207911 0.978148 -0
    outer loop
      vertex 1.8541 5.70634 21.7319
      vertex 0.627171 5.96713 25
      vertex 1.8541 5.70634 25
    endloop
  endfacet
  facet normal 0.207911 0.978148 0
    outer loop
      vertex 0.627171 5.96713 25
      vertex 1.8541 5.70634 21.7319
      vertex 0.627171 5.96713 21.674
    endloop
  endfacet
  facet normal -0.951057 0.309017 0
    outer loop
      vertex -5.86889 1.24747 22.7228
      vertex -5.48127 2.44042 25
      vertex -5.48127 2.44042 22.4577
    endloop
  endfacet
  facet normal -0.951057 0.309017 0
    outer loop
      vertex -5.48127 2.44042 25
      vertex -5.86889 1.24747 22.7228
      vertex -5.86889 1.24747 25
    endloop
  endfacet
  facet normal 0 0 1
    outer loop
      vertex 2.5 0 25
      vertex 6 0 25
      vertex 5.86889 1.24747 25
    endloop
  endfacet
  facet normal 0 0 1
    outer loop
      vertex 2.37764 0.772542 25
      vertex 5.86889 1.24747 25
      vertex 5.48127 2.44042 25
    endloop
  endfacet
  facet normal 0 0 1
    outer loop
      vertex 6 0 25
      vertex 2.5 0 25
      vertex 5.86889 -1.24747 25
    endloop
  endfacet
  facet normal 0 0 1
    outer loop
      vertex 2.02254 1.46946 25
      vertex 5.48127 2.44042 25
      vertex 4.8541 3.52671 25
    endloop
  endfacet
  facet normal -0 0 1
    outer loop
      vertex 2.37764 -0.772542 25
      vertex 5.86889 -1.24747 25
      vertex 2.5 0 25
    endloop
  endfacet
  facet normal 0 0 1
    outer loop
      vertex 2.02254 1.46946 25
      vertex 4.8541 3.52671 25
      vertex 4.01478 4.45887 25
    endloop
  endfacet
  facet normal 0 0 1
    outer loop
      vertex 5.86889 -1.24747 25
      vertex 2.37764 -0.772542 25
      vertex 5.48127 -2.44042 25
    endloop
  endfacet
  facet normal 0 0 1
    outer loop
      vertex 1.46946 2.02254 25
      vertex 4.01478 4.45887 25
      vertex 3 5.19615 25
    endloop
  endfacet
  facet normal -0 0 1
    outer loop
      vertex 2.02254 -1.46946 25
      vertex 5.48127 -2.44042 25
      vertex 2.37764 -0.772542 25
    endloop
  endfacet
  facet normal 0 0 1
    outer loop
      vertex 5.48127 -2.44042 25
      vertex 2.02254 -1.46946 25
      vertex 4.8541 -3.52671 25
    endloop
  endfacet
  facet normal 0 0 1
    outer loop
      vertex 5.86889 1.24747 25
      vertex 2.37764 0.772542 25
      vertex 2.5 0 25
    endloop
  endfacet
  facet normal 0 0 1
    outer loop
      vertex 5.48127 2.44042 25
      vertex 2.02254 1.46946 25
      vertex 2.37764 0.772542 25
    endloop
  endfacet
  facet normal 0 0 1
    outer loop
      vertex 0.772542 2.37764 25
      vertex 3 5.19615 25
      vertex 1.8541 5.70634 25
    endloop
  endfacet
  facet normal 0 0 1
    outer loop
      vertex 4.01478 4.45887 25
      vertex 1.46946 2.02254 25
      vertex 2.02254 1.46946 25
    endloop
  endfacet
  facet normal 0 0 1
    outer loop
      vertex 3 5.19615 25
      vertex 0.772542 2.37764 25
      vertex 1.46946 2.02254 25
    endloop
  endfacet
  facet normal 0 0 1
    outer loop
      vertex 0.627171 5.96713 25
      vertex 0.772542 2.37764 25
      vertex 1.8541 5.70634 25
    endloop
  endfacet
  facet normal 0 0 1
    outer loop
      vertex 0.627171 5.96713 25
      vertex 0 2.5 25
      vertex 0.772542 2.37764 25
    endloop
  endfacet
  facet normal -0 0 1
    outer loop
      vertex -0.627171 5.96713 25
      vertex 0 2.5 25
      vertex 0.627171 5.96713 25
    endloop
  endfacet
  facet normal 0 0 1
    outer loop
      vertex -0.627171 5.96713 25
      vertex -0.772542 2.37764 25
      vertex 0 2.5 25
    endloop
  endfacet
  facet normal -0 0 1
    outer loop
      vertex -1.8541 5.70634 25
      vertex -0.772542 2.37764 25
      vertex -0.627171 5.96713 25
    endloop
  endfacet
  facet normal -0 0 1
    outer loop
      vertex -3 5.19615 25
      vertex -0.772542 2.37764 25
      vertex -1.8541 5.70634 25
    endloop
  endfacet
  facet normal 0 0 1
    outer loop
      vertex -0.772542 2.37764 25
      vertex -3 5.19615 25
      vertex -1.46946 2.02254 25
    endloop
  endfacet
  facet normal -0 0 1
    outer loop
      vertex -4.01478 4.45887 25
      vertex -1.46946 2.02254 25
      vertex -3 5.19615 25
    endloop
  endfacet
  facet normal 0 0 1
    outer loop
      vertex -1.46946 2.02254 25
      vertex -4.01478 4.45887 25
      vertex -2.02254 1.46946 25
    endloop
  endfacet
  facet normal -0 0 1
    outer loop
      vertex -4.8541 3.52671 25
      vertex -2.02254 1.46946 25
      vertex -4.01478 4.45887 25
    endloop
  endfacet
  facet normal 0 0 1
    outer loop
      vertex 4.8541 -3.52671 25
      vertex 2.02254 -1.46946 25
      vertex 4.01478 -4.45887 25
    endloop
  endfacet
  facet normal -0 0 1
    outer loop
      vertex 1.46946 -2.02254 25
      vertex 4.01478 -4.45887 25
      vertex 2.02254 -1.46946 25
    endloop
  endfacet
  facet normal 0 0 1
    outer loop
      vertex 4.01478 -4.45887 25
      vertex 1.46946 -2.02254 25
      vertex 3 -5.19615 25
    endloop
  endfacet
  facet normal -0 0 1
    outer loop
      vertex 0.772542 -2.37764 25
      vertex 3 -5.19615 25
      vertex 1.46946 -2.02254 25
    endloop
  endfacet
  facet normal 0 0 1
    outer loop
      vertex 3 -5.19615 25
      vertex 0.772542 -2.37764 25
      vertex 1.8541 -5.70634 25
    endloop
  endfacet
  facet normal 0 0 1
    outer loop
      vertex 0.772542 -2.37764 25
      vertex 0.627171 -5.96713 25
      vertex 1.8541 -5.70634 25
    endloop
  endfacet
  facet normal -0 0 1
    outer loop
      vertex 0 -2.5 25
      vertex 0.627171 -5.96713 25
      vertex 0.772542 -2.37764 25
    endloop
  endfacet
  facet normal 0 0 1
    outer loop
      vertex 0 -2.5 25
      vertex -0.627171 -5.96713 25
      vertex 0.627171 -5.96713 25
    endloop
  endfacet
  facet normal 0 0 1
    outer loop
      vertex -0.772542 -2.37764 25
      vertex -0.627171 -5.96713 25
      vertex 0 -2.5 25
    endloop
  endfacet
  facet normal 0 0 1
    outer loop
      vertex -3 -5.19615 25
      vertex -0.772542 -2.37764 25
      vertex -1.46946 -2.02254 25
    endloop
  endfacet
  facet normal 0 0 1
    outer loop
      vertex -0.772542 -2.37764 25
      vertex -1.8541 -5.70634 25
      vertex -0.627171 -5.96713 25
    endloop
  endfacet
  facet normal 0 0 1
    outer loop
      vertex -4.01478 -4.45887 25
      vertex -1.46946 -2.02254 25
      vertex -2.02254 -1.46946 25
    endloop
  endfacet
  facet normal 0 0 1
    outer loop
      vertex -5.48127 -2.44042 25
      vertex -2.02254 -1.46946 25
      vertex -2.37764 -0.772542 25
    endloop
  endfacet
  facet normal 0 0 1
    outer loop
      vertex -5.86889 -1.24747 25
      vertex -2.37764 -0.772542 25
      vertex -2.5 0 25
    endloop
  endfacet
  facet normal 0 0 1
    outer loop
      vertex -0.772542 -2.37764 25
      vertex -3 -5.19615 25
      vertex -1.8541 -5.70634 25
    endloop
  endfacet
  facet normal -0 0 1
    outer loop
      vertex -5.48127 2.44042 25
      vertex -2.02254 1.46946 25
      vertex -4.8541 3.52671 25
    endloop
  endfacet
  facet normal 0 0 1
    outer loop
      vertex -2.02254 1.46946 25
      vertex -5.48127 2.44042 25
      vertex -2.37764 0.772542 25
    endloop
  endfacet
  facet normal 0 0 1
    outer loop
      vertex -1.46946 -2.02254 25
      vertex -4.01478 -4.45887 25
      vertex -3 -5.19615 25
    endloop
  endfacet
  facet normal -0 0 1
    outer loop
      vertex -5.86889 1.24747 25
      vertex -2.37764 0.772542 25
      vertex -5.48127 2.44042 25
    endloop
  endfacet
  facet normal 0 0 1
    outer loop
      vertex -2.02254 -1.46946 25
      vertex -4.8541 -3.52671 25
      vertex -4.01478 -4.45887 25
    endloop
  endfacet
  facet normal 0 0 1
    outer loop
      vertex -2.37764 0.772542 25
      vertex -5.86889 1.24747 25
      vertex -2.5 0 25
    endloop
  endfacet
  facet normal 0 0 1
    outer loop
      vertex -2.02254 -1.46946 25
      vertex -5.48127 -2.44042 25
      vertex -4.8541 -3.52671 25
    endloop
  endfacet
  facet normal 0 0 1
    outer loop
      vertex -6 0 25
      vertex -2.5 0 25
      vertex -5.86889 1.24747 25
    endloop
  endfacet
  facet normal 0 0 1
    outer loop
      vertex -2.37764 -0.772542 25
      vertex -5.86889 -1.24747 25
      vertex -5.48127 -2.44042 25
    endloop
  endfacet
  facet normal 0 0 1
    outer loop
      vertex -2.5 0 25
      vertex -6 0 25
      vertex -5.86889 -1.24747 25
    endloop
  endfacet
  facet normal -0.587785 0.809017 0
    outer loop
      vertex -3 5.19615 25
      vertex -4.01478 4.45887 22.0091
      vertex -4.01478 4.45887 25
    endloop
  endfacet
  facet normal -0.587785 0.809017 0
    outer loop
      vertex -4.01478 4.45887 22.0091
      vertex -3 5.19615 25
      vertex -3 5.19615 21.8453
    endloop
  endfacet
  facet normal -0.207911 0.978148 0
    outer loop
      vertex -0.627171 5.96713 25
      vertex -1.8541 5.70634 21.7319
      vertex -1.8541 5.70634 25
    endloop
  endfacet
  facet normal -0.207911 0.978148 0
    outer loop
      vertex -1.8541 5.70634 21.7319
      vertex -0.627171 5.96713 25
      vertex -0.627171 5.96713 21.674
    endloop
  endfacet
  facet normal 0.994522 -0.104529 0
    outer loop
      vertex 5.86889 -1.24747 25
      vertex 6 0 23
      vertex 6 0 25
    endloop
  endfacet
  facet normal 0.994522 -0.104529 0
    outer loop
      vertex 6 0 23
      vertex 5.86889 -1.24747 25
      vertex 5.86889 -1.24747 23
    endloop
  endfacet
  facet normal 0.207911 -0.978148 0
    outer loop
      vertex 0.627171 -5.96713 23
      vertex 1.8541 -5.70634 25
      vertex 0.627171 -5.96713 25
    endloop
  endfacet
  facet normal 0.207911 -0.978148 0
    outer loop
      vertex 1.8541 -5.70634 25
      vertex 0.627171 -5.96713 23
      vertex 1.8541 -5.70634 23
    endloop
  endfacet
  facet normal 0.866025 -0.5 0
    outer loop
      vertex 4.8541 -3.52671 25
      vertex 5.48127 -2.44042 23
      vertex 5.48127 -2.44042 25
    endloop
  endfacet
  facet normal 0.866025 -0.5 0
    outer loop
      vertex 5.48127 -2.44042 23
      vertex 4.8541 -3.52671 25
      vertex 4.8541 -3.52671 23
    endloop
  endfacet
  facet normal -0.866025 -0.5 0
    outer loop
      vertex -4.8541 -3.52671 23
      vertex -5.48127 -2.44042 25
      vertex -5.48127 -2.44042 23
    endloop
  endfacet
  facet normal -0.866025 -0.5 0
    outer loop
      vertex -5.48127 -2.44042 25
      vertex -4.8541 -3.52671 23
      vertex -4.8541 -3.52671 25
    endloop
  endfacet
  facet normal 0.587786 -0.809017 0
    outer loop
      vertex 3 -5.19615 23
      vertex 4.01478 -4.45887 25
      vertex 3 -5.19615 25
    endloop
  endfacet
  facet normal 0.587786 -0.809017 0
    outer loop
      vertex 4.01478 -4.45887 25
      vertex 3 -5.19615 23
      vertex 4.01478 -4.45887 23
    endloop
  endfacet
  facet normal 0.406737 -0.913545 0
    outer loop
      vertex 1.8541 -5.70634 23
      vertex 3 -5.19615 25
      vertex 1.8541 -5.70634 25
    endloop
  endfacet
  facet normal 0.406737 -0.913545 0
    outer loop
      vertex 3 -5.19615 25
      vertex 1.8541 -5.70634 23
      vertex 3 -5.19615 23
    endloop
  endfacet
  facet normal -0.207911 -0.978148 0
    outer loop
      vertex -1.8541 -5.70634 23
      vertex -0.627171 -5.96713 25
      vertex -1.8541 -5.70634 25
    endloop
  endfacet
  facet normal -0.207911 -0.978148 -0
    outer loop
      vertex -0.627171 -5.96713 25
      vertex -1.8541 -5.70634 23
      vertex -0.627171 -5.96713 23
    endloop
  endfacet
  facet normal -0.743145 -0.669131 0
    outer loop
      vertex -4.01478 -4.45887 23
      vertex -4.8541 -3.52671 25
      vertex -4.8541 -3.52671 23
    endloop
  endfacet
  facet normal -0.743145 -0.669131 0
    outer loop
      vertex -4.8541 -3.52671 25
      vertex -4.01478 -4.45887 23
      vertex -4.01478 -4.45887 25
    endloop
  endfacet
  facet normal -0.951057 -0.309017 0
    outer loop
      vertex -5.48127 -2.44042 23
      vertex -5.86889 -1.24747 25
      vertex -5.86889 -1.24747 23
    endloop
  endfacet
  facet normal -0.951057 -0.309017 0
    outer loop
      vertex -5.86889 -1.24747 25
      vertex -5.48127 -2.44042 23
      vertex -5.48127 -2.44042 25
    endloop
  endfacet
  facet normal -0.994522 -0.104529 0
    outer loop
      vertex -5.86889 -1.24747 23
      vertex -6 0 25
      vertex -6 0 23
    endloop
  endfacet
  facet normal -0.994522 -0.104529 0
    outer loop
      vertex -6 0 25
      vertex -5.86889 -1.24747 23
      vertex -5.86889 -1.24747 25
    endloop
  endfacet
  facet normal 0.743145 -0.669131 0
    outer loop
      vertex 4.01478 -4.45887 25
      vertex 4.8541 -3.52671 23
      vertex 4.8541 -3.52671 25
    endloop
  endfacet
  facet normal 0.743145 -0.669131 0
    outer loop
      vertex 4.8541 -3.52671 23
      vertex 4.01478 -4.45887 25
      vertex 4.01478 -4.45887 23
    endloop
  endfacet
  facet normal -0.406737 -0.913545 0
    outer loop
      vertex -3 -5.19615 23
      vertex -1.8541 -5.70634 25
      vertex -3 -5.19615 25
    endloop
  endfacet
  facet normal -0.406737 -0.913545 -0
    outer loop
      vertex -1.8541 -5.70634 25
      vertex -3 -5.19615 23
      vertex -1.8541 -5.70634 23
    endloop
  endfacet
  facet normal -0.587786 -0.809017 0
    outer loop
      vertex -4.01478 -4.45887 23
      vertex -3 -5.19615 25
      vertex -4.01478 -4.45887 25
    endloop
  endfacet
  facet normal -0.587786 -0.809017 -0
    outer loop
      vertex -3 -5.19615 25
      vertex -4.01478 -4.45887 23
      vertex -3 -5.19615 23
    endloop
  endfacet
  facet normal 0.987688 0.156435 0
    outer loop
      vertex 2.5 0 27.5
      vertex 2.37764 0.772542 25
      vertex 2.37764 0.772542 27.5
    endloop
  endfacet
  facet normal 0.987688 0.156435 0
    outer loop
      vertex 2.37764 0.772542 25
      vertex 2.5 0 27.5
      vertex 2.5 0 25
    endloop
  endfacet
  facet normal 0.453991 0.891006 -0
    outer loop
      vertex 1.46946 2.02254 25
      vertex 0.772542 2.37764 27.5
      vertex 1.46946 2.02254 27.5
    endloop
  endfacet
  facet normal 0.453991 0.891006 0
    outer loop
      vertex 0.772542 2.37764 27.5
      vertex 1.46946 2.02254 25
      vertex 0.772542 2.37764 25
    endloop
  endfacet
  facet normal -0.891006 0.453991 0
    outer loop
      vertex -2.37764 0.772542 25
      vertex -2.02254 1.46946 27.5
      vertex -2.02254 1.46946 25
    endloop
  endfacet
  facet normal -0.891006 0.453991 0
    outer loop
      vertex -2.02254 1.46946 27.5
      vertex -2.37764 0.772542 25
      vertex -2.37764 0.772542 27.5
    endloop
  endfacet
  facet normal -0.453991 -0.891006 0
    outer loop
      vertex -1.46946 -2.02254 25
      vertex -0.772542 -2.37764 27.5
      vertex -1.46946 -2.02254 27.5
    endloop
  endfacet
  facet normal -0.453991 -0.891006 -0
    outer loop
      vertex -0.772542 -2.37764 27.5
      vertex -1.46946 -2.02254 25
      vertex -0.772542 -2.37764 25
    endloop
  endfacet
  facet normal 0.707107 0.707107 0
    outer loop
      vertex 2.02254 1.46946 27.5
      vertex 1.46946 2.02254 25
      vertex 1.46946 2.02254 27.5
    endloop
  endfacet
  facet normal 0.707107 0.707107 0
    outer loop
      vertex 1.46946 2.02254 25
      vertex 2.02254 1.46946 27.5
      vertex 2.02254 1.46946 25
    endloop
  endfacet
  facet normal 0.891006 0.453991 0
    outer loop
      vertex 2.37764 0.772542 27.5
      vertex 2.02254 1.46946 25
      vertex 2.02254 1.46946 27.5
    endloop
  endfacet
  facet normal 0.891006 0.453991 0
    outer loop
      vertex 2.02254 1.46946 25
      vertex 2.37764 0.772542 27.5
      vertex 2.37764 0.772542 25
    endloop
  endfacet
  facet normal 0.156435 0.987688 -0
    outer loop
      vertex 0.772542 2.37764 25
      vertex 0 2.5 27.5
      vertex 0.772542 2.37764 27.5
    endloop
  endfacet
  facet normal 0.156435 0.987688 0
    outer loop
      vertex 0 2.5 27.5
      vertex 0.772542 2.37764 25
      vertex 0 2.5 25
    endloop
  endfacet
  facet normal -0.156435 0.987688 0
    outer loop
      vertex 0 2.5 25
      vertex -0.772542 2.37764 27.5
      vertex 0 2.5 27.5
    endloop
  endfacet
  facet normal -0.156435 0.987688 0
    outer loop
      vertex -0.772542 2.37764 27.5
      vertex 0 2.5 25
      vertex -0.772542 2.37764 25
    endloop
  endfacet
  facet normal -0.707107 0.707107 0
    outer loop
      vertex -2.02254 1.46946 25
      vertex -1.46946 2.02254 27.5
      vertex -1.46946 2.02254 25
    endloop
  endfacet
  facet normal -0.707107 0.707107 0
    outer loop
      vertex -1.46946 2.02254 27.5
      vertex -2.02254 1.46946 25
      vertex -2.02254 1.46946 27.5
    endloop
  endfacet
  facet normal -0.453991 0.891006 0
    outer loop
      vertex -0.772542 2.37764 25
      vertex -1.46946 2.02254 27.5
      vertex -0.772542 2.37764 27.5
    endloop
  endfacet
  facet normal -0.453991 0.891006 0
    outer loop
      vertex -1.46946 2.02254 27.5
      vertex -0.772542 2.37764 25
      vertex -1.46946 2.02254 25
    endloop
  endfacet
  facet normal 0.707107 -0.707107 0
    outer loop
      vertex 1.46946 -2.02254 27.5
      vertex 2.02254 -1.46946 25
      vertex 2.02254 -1.46946 27.5
    endloop
  endfacet
  facet normal 0.707107 -0.707107 0
    outer loop
      vertex 2.02254 -1.46946 25
      vertex 1.46946 -2.02254 27.5
      vertex 1.46946 -2.02254 25
    endloop
  endfacet
  facet normal -0.987688 -0.156435 0
    outer loop
      vertex -2.37764 -0.772542 25
      vertex -2.5 0 27.5
      vertex -2.5 0 25
    endloop
  endfacet
  facet normal -0.987688 -0.156435 0
    outer loop
      vertex -2.5 0 27.5
      vertex -2.37764 -0.772542 25
      vertex -2.37764 -0.772542 27.5
    endloop
  endfacet
  facet normal -0.707107 -0.707107 0
    outer loop
      vertex -1.46946 -2.02254 25
      vertex -2.02254 -1.46946 27.5
      vertex -2.02254 -1.46946 25
    endloop
  endfacet
  facet normal -0.707107 -0.707107 0
    outer loop
      vertex -2.02254 -1.46946 27.5
      vertex -1.46946 -2.02254 25
      vertex -1.46946 -2.02254 27.5
    endloop
  endfacet
  facet normal -0.891006 -0.453991 0
    outer loop
      vertex -2.02254 -1.46946 25
      vertex -2.37764 -0.772542 27.5
      vertex -2.37764 -0.772542 25
    endloop
  endfacet
  facet normal -0.891006 -0.453991 0
    outer loop
      vertex -2.37764 -0.772542 27.5
      vertex -2.02254 -1.46946 25
      vertex -2.02254 -1.46946 27.5
    endloop
  endfacet
  facet normal -0.987688 0.156435 0
    outer loop
      vertex -2.5 0 25
      vertex -2.37764 0.772542 27.5
      vertex -2.37764 0.772542 25
    endloop
  endfacet
  facet normal -0.987688 0.156435 0
    outer loop
      vertex -2.37764 0.772542 27.5
      vertex -2.5 0 25
      vertex -2.5 0 27.5
    endloop
  endfacet
  facet normal 0.891006 -0.453991 0
    outer loop
      vertex 2.02254 -1.46946 27.5
      vertex 2.37764 -0.772542 25
      vertex 2.37764 -0.772542 27.5
    endloop
  endfacet
  facet normal 0.891006 -0.453991 0
    outer loop
      vertex 2.37764 -0.772542 25
      vertex 2.02254 -1.46946 27.5
      vertex 2.02254 -1.46946 25
    endloop
  endfacet
  facet normal 0.156435 -0.987688 0
    outer loop
      vertex 0 -2.5 25
      vertex 0.772542 -2.37764 27.5
      vertex 0 -2.5 27.5
    endloop
  endfacet
  facet normal 0.156435 -0.987688 0
    outer loop
      vertex 0.772542 -2.37764 27.5
      vertex 0 -2.5 25
      vertex 0.772542 -2.37764 25
    endloop
  endfacet
  facet normal 0.453991 -0.891006 0
    outer loop
      vertex 0.772542 -2.37764 25
      vertex 1.46946 -2.02254 27.5
      vertex 0.772542 -2.37764 27.5
    endloop
  endfacet
  facet normal 0.453991 -0.891006 0
    outer loop
      vertex 1.46946 -2.02254 27.5
      vertex 0.772542 -2.37764 25
      vertex 1.46946 -2.02254 25
    endloop
  endfacet
  facet normal -0.156435 -0.987688 0
    outer loop
      vertex -0.772542 -2.37764 25
      vertex 0 -2.5 27.5
      vertex -0.772542 -2.37764 27.5
    endloop
  endfacet
  facet normal -0.156435 -0.987688 -0
    outer loop
      vertex 0 -2.5 27.5
      vertex -0.772542 -2.37764 25
      vertex 0 -2.5 25
    endloop
  endfacet
  facet normal 0 0 1
    outer loop
      vertex 2.37764 0.772542 27.5
      vertex 2.37764 -0.772542 27.5
      vertex 2.5 0 27.5
    endloop
  endfacet
  facet normal 0 0 1
    outer loop
      vertex 2.02254 1.46946 27.5
      vertex 2.37764 -0.772542 27.5
      vertex 2.37764 0.772542 27.5
    endloop
  endfacet
  facet normal 0 0 1
    outer loop
      vertex 2.02254 1.46946 27.5
      vertex 2.02254 -1.46946 27.5
      vertex 2.37764 -0.772542 27.5
    endloop
  endfacet
  facet normal 0 0 1
    outer loop
      vertex 1.46946 2.02254 27.5
      vertex 2.02254 -1.46946 27.5
      vertex 2.02254 1.46946 27.5
    endloop
  endfacet
  facet normal 0 0 1
    outer loop
      vertex 1.46946 2.02254 27.5
      vertex 1.46946 -2.02254 27.5
      vertex 2.02254 -1.46946 27.5
    endloop
  endfacet
  facet normal 0 0 1
    outer loop
      vertex 0.772542 2.37764 27.5
      vertex 1.46946 -2.02254 27.5
      vertex 1.46946 2.02254 27.5
    endloop
  endfacet
  facet normal 0 0 1
    outer loop
      vertex 0.772542 2.37764 27.5
      vertex 0.772542 -2.37764 27.5
      vertex 1.46946 -2.02254 27.5
    endloop
  endfacet
  facet normal 0 0 1
    outer loop
      vertex 0 2.5 27.5
      vertex 0.772542 -2.37764 27.5
      vertex 0.772542 2.37764 27.5
    endloop
  endfacet
  facet normal 0 0 1
    outer loop
      vertex 0 2.5 27.5
      vertex 0 -2.5 27.5
      vertex 0.772542 -2.37764 27.5
    endloop
  endfacet
  facet normal -0 0 1
    outer loop
      vertex -0.772542 2.37764 27.5
      vertex 0 -2.5 27.5
      vertex 0 2.5 27.5
    endloop
  endfacet
  facet normal 0 0 1
    outer loop
      vertex -0.772542 2.37764 27.5
      vertex -0.772542 -2.37764 27.5
      vertex 0 -2.5 27.5
    endloop
  endfacet
  facet normal -0 0 1
    outer loop
      vertex -1.46946 2.02254 27.5
      vertex -0.772542 -2.37764 27.5
      vertex -0.772542 2.37764 27.5
    endloop
  endfacet
  facet normal 0 0 1
    outer loop
      vertex -1.46946 2.02254 27.5
      vertex -1.46946 -2.02254 27.5
      vertex -0.772542 -2.37764 27.5
    endloop
  endfacet
  facet normal -0 0 1
    outer loop
      vertex -2.02254 1.46946 27.5
      vertex -1.46946 -2.02254 27.5
      vertex -1.46946 2.02254 27.5
    endloop
  endfacet
  facet normal 0 0 1
    outer loop
      vertex -2.02254 1.46946 27.5
      vertex -2.02254 -1.46946 27.5
      vertex -1.46946 -2.02254 27.5
    endloop
  endfacet
  facet normal -0 0 1
    outer loop
      vertex -2.37764 0.772542 27.5
      vertex -2.02254 -1.46946 27.5
      vertex -2.02254 1.46946 27.5
    endloop
  endfacet
  facet normal 0 0 1
    outer loop
      vertex -2.37764 0.772542 27.5
      vertex -2.37764 -0.772542 27.5
      vertex -2.02254 -1.46946 27.5
    endloop
  endfacet
  facet normal 0 -0 1
    outer loop
      vertex -2.37764 -0.772542 27.5
      vertex -2.37764 0.772542 27.5
      vertex -2.5 0 27.5
    endloop
  endfacet
  facet normal 0.987688 -0.156435 0
    outer loop
      vertex 2.37764 -0.772542 27.5
      vertex 2.5 0 25
      vertex 2.5 0 27.5
    endloop
  endfacet
  facet normal 0.987688 -0.156435 0
    outer loop
      vertex 2.5 0 25
      vertex 2.37764 -0.772542 27.5
      vertex 2.37764 -0.772542 25
    endloop
  endfacet
  facet normal -1 0 0
    outer loop
      vertex -6 -11 17
      vertex -6 -6 19.5
      vertex -6 -6 17
    endloop
  endfacet
  facet normal -1 -0 0
    outer loop
      vertex -6 -6 19.5
      vertex -6 -11 17
      vertex -6 -11 19.5
    endloop
  endfacet
  facet normal -1 0 0
    outer loop
      vertex -6 16.8 0
      vertex -6 0.5 19.5
      vertex -6 16.8 17
    endloop
  endfacet
  facet normal -1 0 0
    outer loop
      vertex -6 0.5 19.5
      vertex -6 0 23
      vertex -6 0.5 23
    endloop
  endfacet
  facet normal -1 0 0
    outer loop
      vertex -6 -6 0
      vertex -6 0.5 19.5
      vertex -6 16.8 0
    endloop
  endfacet
  facet normal -1 0 0
    outer loop
      vertex -6 -6 17
      vertex -6 0.5 19.5
      vertex -6 -6 0
    endloop
  endfacet
  facet normal -1 0 0
    outer loop
      vertex -6 -6 19.5
      vertex -6 0.5 19.5
      vertex -6 -6 17
    endloop
  endfacet
  facet normal -1 0 0
    outer loop
      vertex -6 0.5 19.5
      vertex -6 -6 19.5
      vertex -6 0 23
    endloop
  endfacet
  facet normal -1 -0 0
    outer loop
      vertex -6 0 23
      vertex -6 -6 19.5
      vertex -6 -6 23
    endloop
  endfacet
  facet normal -1 0 0
    outer loop
      vertex -6 16.8 17
      vertex -6 21.8 19.5
      vertex -6 21.8 17
    endloop
  endfacet
  facet normal -1 -0 0
    outer loop
      vertex -6 21.8 19.5
      vertex -6 16.8 17
      vertex -6 0.5 19.5
    endloop
  endfacet
  facet normal 0 0 1
    outer loop
      vertex 6 21.8 19.5
      vertex -4.5 15.75 19.5
      vertex 6 15.75 19.5
    endloop
  endfacet
  facet normal -0 0 1
    outer loop
      vertex -6 21.8 19.5
      vertex -4.5 15.75 19.5
      vertex 6 21.8 19.5
    endloop
  endfacet
  facet normal 0 0 1
    outer loop
      vertex -4.5 15.75 19.5
      vertex -6 21.8 19.5
      vertex -6 15.75 19.5
    endloop
  endfacet
  facet normal 0 0 1
    outer loop
      vertex -6 15.75 19.5
      vertex -6 21.8 19.5
      vertex -6 0.5 19.5
    endloop
  endfacet
  facet normal -0 0 1
    outer loop
      vertex -6 -6 19.5
      vertex 6 -11 19.5
      vertex 6 -6 19.5
    endloop
  endfacet
  facet normal 0 0 1
    outer loop
      vertex 6 -11 19.5
      vertex -6 -6 19.5
      vertex -6 -11 19.5
    endloop
  endfacet
  facet normal 1 0 0
    outer loop
      vertex 6 0.5 23
      vertex 6 0 23
      vertex 6 0.5 22.8889
    endloop
  endfacet
  facet normal 1 0 0
    outer loop
      vertex 6 21.8 19.5
      vertex 6 16.8 17
      vertex 6 21.8 17
    endloop
  endfacet
  facet normal 1 -0 0
    outer loop
      vertex 6 15.75 19.5
      vertex 6 16.8 17
      vertex 6 21.8 19.5
    endloop
  endfacet
  facet normal 1 0 0
    outer loop
      vertex 6 0.5 22.8889
      vertex 6 16.8 17
      vertex 6 15.75 19.5
    endloop
  endfacet
  facet normal 1 0 0
    outer loop
      vertex 6 16.8 17
      vertex 6 0.5 22.8889
      vertex 6 -6 17
    endloop
  endfacet
  facet normal 1 0 0
    outer loop
      vertex 6 -6 17
      vertex 6 0.5 22.8889
      vertex 6 0 23
    endloop
  endfacet
  facet normal 1 0 0
    outer loop
      vertex 6 -6 19.5
      vertex 6 0 23
      vertex 6 -6 23
    endloop
  endfacet
  facet normal 1 0 0
    outer loop
      vertex 6 -6 17
      vertex 6 0 23
      vertex 6 -6 19.5
    endloop
  endfacet
  facet normal 1 0 0
    outer loop
      vertex 6 16.8 17
      vertex 6 -6 17
      vertex 6 16.8 0
    endloop
  endfacet
  facet normal 1 0 0
    outer loop
      vertex 6 16.8 0
      vertex 6 -6 17
      vertex 6 -6 0
    endloop
  endfacet
  facet normal 1 -0 0
    outer loop
      vertex 6 -11 19.5
      vertex 6 -6 17
      vertex 6 -6 19.5
    endloop
  endfacet
  facet normal 1 0 0
    outer loop
      vertex 6 -6 17
      vertex 6 -11 19.5
      vertex 6 -11 17
    endloop
  endfacet
  facet normal 0 1 -0
    outer loop
      vertex 6 16.8 0
      vertex -6 16.8 17
      vertex 6 16.8 17
    endloop
  endfacet
  facet normal 0 1 0
    outer loop
      vertex -6 16.8 17
      vertex 6 16.8 0
      vertex -6 16.8 0
    endloop
  endfacet
  facet normal 0 0 -1
    outer loop
      vertex -6 -6 0
      vertex 6 16.8 0
      vertex 6 -6 0
    endloop
  endfacet
  facet normal -0 0 -1
    outer loop
      vertex 6 16.8 0
      vertex -6 -6 0
      vertex -6 16.8 0
    endloop
  endfacet
  facet normal 0 -1 0
    outer loop
      vertex -6 -6 0
      vertex 6 -6 17
      vertex -6 -6 17
    endloop
  endfacet
  facet normal 0 -1 -0
    outer loop
      vertex 6 -6 17
      vertex -6 -6 0
      vertex 6 -6 0
    endloop
  endfacet
  facet normal 0 0 -1
    outer loop
      vertex -6 -11 17
      vertex 6 -6 17
      vertex 6 -11 17
    endloop
  endfacet
  facet normal -0 0 -1
    outer loop
      vertex 6 -6 17
      vertex -6 -11 17
      vertex -6 -6 17
    endloop
  endfacet
  facet normal 0 -1 0
    outer loop
      vertex -6 -11 17
      vertex 6 -11 19.5
      vertex -6 -11 19.5
    endloop
  endfacet
  facet normal 0 -1 -0
    outer loop
      vertex 6 -11 19.5
      vertex -6 -11 17
      vertex 6 -11 17
    endloop
  endfacet
  facet normal 0 0 -1
    outer loop
      vertex -6 16.8 17
      vertex 6 21.8 17
      vertex 6 16.8 17
    endloop
  endfacet
  facet normal -0 0 -1
    outer loop
      vertex 6 21.8 17
      vertex -6 16.8 17
      vertex -6 21.8 17
    endloop
  endfacet
  facet normal 0 1 -0
    outer loop
      vertex 6 21.8 17
      vertex -6 21.8 19.5
      vertex 6 21.8 19.5
    endloop
  endfacet
  facet normal 0 1 0
    outer loop
      vertex -6 21.8 19.5
      vertex 6 21.8 17
      vertex -6 21.8 17
    endloop
  endfacet
  facet normal -1 6.2536e-08 0
    outer loop
      vertex -6 15.75 19.5
      vertex -6 0.5 19.5
      vertex -6 0.5 22.8889
    endloop
  endfacet
  facet normal -6.31028e-07 0.21693 0.976187
    outer loop
      vertex -4.5 15.75 19.5
      vertex 1.8541 5.70634 21.7319
      vertex 2.34 5.49 21.78
    endloop
  endfacet
  facet normal 7.6408e-07 0.216931 0.976187
    outer loop
      vertex -4.5 15.75 19.5
      vertex 0.627171 5.96713 21.674
      vertex 1.8541 5.70634 21.7319
    endloop
  endfacet
  facet normal 0 0.21693 0.976187
    outer loop
      vertex -4.5 15.75 19.5
      vertex -0.627171 5.96713 21.674
      vertex 0.627171 5.96713 21.674
    endloop
  endfacet
  facet normal -6.26264e-07 0.21693 0.976187
    outer loop
      vertex -4.5 15.75 19.5
      vertex -1.8541 5.70634 21.7319
      vertex -0.627171 5.96713 21.674
    endloop
  endfacet
  facet normal -1.36963e-07 0.21693 0.976187
    outer loop
      vertex -4.5 15.75 19.5
      vertex -3 5.19615 21.8453
      vertex -1.8541 5.70634 21.7319
    endloop
  endfacet
  facet normal -0 0.21693 0.976187
    outer loop
      vertex -6 15.75 19.5
      vertex -3 5.19615 21.8453
      vertex -4.5 15.75 19.5
    endloop
  endfacet
  facet normal 3.85158e-07 0.21693 0.976187
    outer loop
      vertex -3 5.19615 21.8453
      vertex -6 15.75 19.5
      vertex -4.01478 4.45887 22.0091
    endloop
  endfacet
  facet normal -1.72169e-07 0.21693 0.976187
    outer loop
      vertex -4.01478 4.45887 22.0091
      vertex -6 15.75 19.5
      vertex -4.8541 3.52671 22.2163
    endloop
  endfacet
  facet normal 2.06215e-06 0.216931 0.976187
    outer loop
      vertex -4.8541 3.52671 22.2163
      vertex -6 15.75 19.5
      vertex -5.48127 2.44042 22.4577
    endloop
  endfacet
  facet normal -3.03027e-06 0.21693 0.976187
    outer loop
      vertex -5.48127 2.44042 22.4577
      vertex -6 15.75 19.5
      vertex -5.86889 1.24747 22.7228
    endloop
  endfacet
  facet normal 6.15677e-06 0.21693 0.976187
    outer loop
      vertex -6 0.5 22.8889
      vertex -5.86889 1.24747 22.7228
      vertex -6 15.75 19.5
    endloop
  endfacet
  facet normal 0 0.216932 0.976187
    outer loop
      vertex -5.86889 1.24747 22.7228
      vertex -6 0.5 22.8889
      vertex -5.94745 0.5 22.8889
    endloop
  endfacet
  facet normal -6.07942e-06 0.21693 0.976187
    outer loop
      vertex 5.86889 1.24747 22.7228
      vertex 6 0.5 22.8889
      vertex 6 15.75 19.5
    endloop
  endfacet
  facet normal 0 0.216932 0.976187
    outer loop
      vertex 6 0.5 22.8889
      vertex 5.86889 1.24747 22.7228
      vertex 5.94745 0.5 22.8889
    endloop
  endfacet
  facet normal 3.07298e-06 0.21693 0.976187
    outer loop
      vertex 6 15.75 19.5
      vertex 5.48127 2.44042 22.4577
      vertex 5.86889 1.24747 22.7228
    endloop
  endfacet
  facet normal -2.03693e-06 0.216931 0.976187
    outer loop
      vertex 6 15.75 19.5
      vertex 4.8541 3.52671 22.2163
      vertex 5.48127 2.44042 22.4577
    endloop
  endfacet
  facet normal 1.89194e-07 0.21693 0.976187
    outer loop
      vertex 6 15.75 19.5
      vertex 4.01478 4.45887 22.0091
      vertex 4.8541 3.52671 22.2163
    endloop
  endfacet
  facet normal -3.73354e-07 0.216931 0.976187
    outer loop
      vertex 6 15.75 19.5
      vertex 3 5.19615 21.8453
      vertex 4.01478 4.45887 22.0091
    endloop
  endfacet
  facet normal 5.33241e-07 0.21693 0.976187
    outer loop
      vertex 6 15.75 19.5
      vertex 2.34 5.49 21.78
      vertex 3 5.19615 21.8453
    endloop
  endfacet
  facet normal 1.9703e-08 0.21693 0.976187
    outer loop
      vertex 2.34 5.49 21.78
      vertex 6 15.75 19.5
      vertex -4.5 15.75 19.5
    endloop
  endfacet
  facet normal -0 0 1
    outer loop
      vertex 5.86889 -1.24747 23
      vertex 6 -6 23
      vertex 6 0 23
    endloop
  endfacet
  facet normal -0 0 1
    outer loop
      vertex 5.48127 -2.44042 23
      vertex 6 -6 23
      vertex 5.86889 -1.24747 23
    endloop
  endfacet
  facet normal -0 0 1
    outer loop
      vertex 4.8541 -3.52671 23
      vertex 6 -6 23
      vertex 5.48127 -2.44042 23
    endloop
  endfacet
  facet normal -0 0 1
    outer loop
      vertex 4.01478 -4.45887 23
      vertex 6 -6 23
      vertex 4.8541 -3.52671 23
    endloop
  endfacet
  facet normal -0 0 1
    outer loop
      vertex 3 -5.19615 23
      vertex 6 -6 23
      vertex 4.01478 -4.45887 23
    endloop
  endfacet
  facet normal -0 0 1
    outer loop
      vertex 1.8541 -5.70634 23
      vertex 6 -6 23
      vertex 3 -5.19615 23
    endloop
  endfacet
  facet normal -0 0 1
    outer loop
      vertex 0.627171 -5.96713 23
      vertex 6 -6 23
      vertex 1.8541 -5.70634 23
    endloop
  endfacet
  facet normal -0 0 1
    outer loop
      vertex -0.627171 -5.96713 23
      vertex 6 -6 23
      vertex 0.627171 -5.96713 23
    endloop
  endfacet
  facet normal 0 0 1
    outer loop
      vertex -0.627171 -5.96713 23
      vertex -6 -6 23
      vertex 6 -6 23
    endloop
  endfacet
  facet normal 0 0 1
    outer loop
      vertex -1.8541 -5.70634 23
      vertex -6 -6 23
      vertex -0.627171 -5.96713 23
    endloop
  endfacet
  facet normal 0 0 1
    outer loop
      vertex -3 -5.19615 23
      vertex -6 -6 23
      vertex -1.8541 -5.70634 23
    endloop
  endfacet
  facet normal 0 0 1
    outer loop
      vertex -4.01478 -4.45887 23
      vertex -6 -6 23
      vertex -3 -5.19615 23
    endloop
  endfacet
  facet normal 0 0 1
    outer loop
      vertex -4.8541 -3.52671 23
      vertex -6 -6 23
      vertex -4.01478 -4.45887 23
    endloop
  endfacet
  facet normal 0 0 1
    outer loop
      vertex -5.48127 -2.44042 23
      vertex -6 -6 23
      vertex -4.8541 -3.52671 23
    endloop
  endfacet
  facet normal 0 0 1
    outer loop
      vertex -5.86889 -1.24747 23
      vertex -6 -6 23
      vertex -5.48127 -2.44042 23
    endloop
  endfacet
  facet normal 0 0 1
    outer loop
      vertex -6 -6 23
      vertex -5.86889 -1.24747 23
      vertex -6 0 23
    endloop
  endfacet
  facet normal 0 0 1
    outer loop
      vertex 6 0.5 23
      vertex 5.94745 0.5 23
      vertex 6 0 23
    endloop
  endfacet
  facet normal -0 0 1
    outer loop
      vertex -6 0.5 23
      vertex -6 0 23
      vertex -5.94745 0.5 23
    endloop
  endfacet
  facet normal 0 -1 0
    outer loop
      vertex -6 -6 19.5
      vertex 6 -6 23
      vertex -6 -6 23
    endloop
  endfacet
  facet normal 0 -1 -0
    outer loop
      vertex 6 -6 23
      vertex -6 -6 19.5
      vertex 6 -6 19.5
    endloop
  endfacet
  facet normal 0 1 -0
    outer loop
      vertex 6 0.5 22.8889
      vertex 5.94745 0.5 23
      vertex 6 0.5 23
    endloop
  endfacet
  facet normal 0 1 0
    outer loop
      vertex 5.94745 0.5 23
      vertex 6 0.5 22.8889
      vertex 5.94745 0.5 22.8889
    endloop
  endfacet
  facet normal 0 1 -0
    outer loop
      vertex -5.94745 0.5 22.8889
      vertex -6 0.5 23
      vertex -5.94745 0.5 23
    endloop
  endfacet
  facet normal 0 1 0
    outer loop
      vertex -6 0.5 23
      vertex -5.94745 0.5 22.8889
      vertex -6 0.5 22.8889
    endloop
  endfacet
  facet normal 0 0 0
    outer loop
      vertex -6 0.5 22.8889
      vertex -6 0.5 19.5
      vertex -6 0.5 23
    endloop
  endfacet
endsolid OpenSCAD_Model
