solid OpenSCAD_Model
  facet normal -1 0 0
    outer loop
      vertex -8 4 -4
      vertex -8 8 4
      vertex -8 8 -4
    endloop
  endfacet
  facet normal -1 -0 0
    outer loop
      vertex -8 8 4
      vertex -8 4 -4
      vertex -8 4 4
    endloop
  endfacet
  facet normal -0 0 1
    outer loop
      vertex -22.75 4 4
      vertex -8 -15 4
      vertex -8 4 4
    endloop
  endfacet
  facet normal 0 0 1
    outer loop
      vertex -8 -15 4
      vertex -22.75 4 4
      vertex -22.75 -15 4
    endloop
  endfacet
  facet normal 0 0 1
    outer loop
      vertex -8 4 4
      vertex -7.25 4 4
      vertex -7.25 8 4
    endloop
  endfacet
  facet normal 0 0 1
    outer loop
      vertex -7.25 4 4
      vertex -8 4 4
      vertex -7.25 -15 4
    endloop
  endfacet
  facet normal 0 0 1
    outer loop
      vertex -8 4 4
      vertex -7.25 8 4
      vertex -8 8 4
    endloop
  endfacet
  facet normal 0 0 1
    outer loop
      vertex -8 -15 4
      vertex -7.25 -15 4
      vertex -8 4 4
    endloop
  endfacet
  facet normal 0 0 1
    outer loop
      vertex -7.25 -15 4
      vertex -8 -15 4
      vertex -7.25 -19 4
    endloop
  endfacet
  facet normal 0 0 1
    outer loop
      vertex -7.25 -19 4
      vertex -8 -15 4
      vertex -8 -19 4
    endloop
  endfacet
  facet normal -0 0 1
    outer loop
      vertex -7.25 4 4
      vertex -4 0 4
      vertex -4 4 4
    endloop
  endfacet
  facet normal 0 0 1
    outer loop
      vertex -7.25 -15 4
      vertex -4 0 4
      vertex -7.25 4 4
    endloop
  endfacet
  facet normal 0 0 1
    outer loop
      vertex -4 0 4
      vertex -7.25 -15 4
      vertex -4 -15 4
    endloop
  endfacet
  facet normal 1 -0 0
    outer loop
      vertex -7.25 4 4
      vertex -7.25 8 -4
      vertex -7.25 8 4
    endloop
  endfacet
  facet normal 1 0 0
    outer loop
      vertex -7.25 8 -4
      vertex -7.25 4 4
      vertex -7.25 4 -4
    endloop
  endfacet
  facet normal 0 1 -0
    outer loop
      vertex -7.25 8 -4
      vertex -8 8 4
      vertex -7.25 8 4
    endloop
  endfacet
  facet normal 0 1 0
    outer loop
      vertex -8 8 4
      vertex -7.25 8 -4
      vertex -8 8 -4
    endloop
  endfacet
  facet normal 0 0 -1
    outer loop
      vertex -22.75 -15 -4
      vertex -8 4 -4
      vertex -8 -15 -4
    endloop
  endfacet
  facet normal -0 0 -1
    outer loop
      vertex -8 4 -4
      vertex -22.75 -15 -4
      vertex -22.75 4 -4
    endloop
  endfacet
  facet normal 0 0 -1
    outer loop
      vertex -8 -15 -4
      vertex -7.25 -15 -4
      vertex -7.25 -19 -4
    endloop
  endfacet
  facet normal 0 0 -1
    outer loop
      vertex -7.25 -15 -4
      vertex -8 -15 -4
      vertex -7.25 4 -4
    endloop
  endfacet
  facet normal 0 0 -1
    outer loop
      vertex -8 -15 -4
      vertex -7.25 -19 -4
      vertex -8 -19 -4
    endloop
  endfacet
  facet normal 0 0 -1
    outer loop
      vertex -8 4 -4
      vertex -7.25 4 -4
      vertex -8 -15 -4
    endloop
  endfacet
  facet normal 0 0 -1
    outer loop
      vertex -7.25 4 -4
      vertex -8 4 -4
      vertex -7.25 8 -4
    endloop
  endfacet
  facet normal -0 0 -1
    outer loop
      vertex -7.25 8 -4
      vertex -8 4 -4
      vertex -8 8 -4
    endloop
  endfacet
  facet normal 0 0 -1
    outer loop
      vertex -7.25 -15 -4
      vertex -4 0 -4
      vertex -4 -15 -4
    endloop
  endfacet
  facet normal 0 0 -1
    outer loop
      vertex -7.25 4 -4
      vertex -4 0 -4
      vertex -7.25 -15 -4
    endloop
  endfacet
  facet normal 0 0 -1
    outer loop
      vertex -4 0 -4
      vertex -7.25 4 -4
      vertex -4 4 -4
    endloop
  endfacet
  facet normal 0 1 -0
    outer loop
      vertex -8 4 -4
      vertex -22.75 4 4
      vertex -8 4 4
    endloop
  endfacet
  facet normal 0 1 0
    outer loop
      vertex -22.75 4 4
      vertex -8 4 -4
      vertex -22.75 4 -4
    endloop
  endfacet
  facet normal 0 1 -0
    outer loop
      vertex -4 4 -4
      vertex -7.25 4 4
      vertex -4 4 4
    endloop
  endfacet
  facet normal 0 1 0
    outer loop
      vertex -7.25 4 4
      vertex -4 4 -4
      vertex -7.25 4 -4
    endloop
  endfacet
  facet normal -1 0 0
    outer loop
      vertex -8 -19 -4
      vertex -8 -15 4
      vertex -8 -15 -4
    endloop
  endfacet
  facet normal -1 -0 0
    outer loop
      vertex -8 -15 4
      vertex -8 -19 -4
      vertex -8 -19 4
    endloop
  endfacet
  facet normal 1 -0 0
    outer loop
      vertex -7.25 -19 4
      vertex -7.25 -15 -4
      vertex -7.25 -15 4
    endloop
  endfacet
  facet normal 1 0 0
    outer loop
      vertex -7.25 -15 -4
      vertex -7.25 -19 4
      vertex -7.25 -19 -4
    endloop
  endfacet
  facet normal 0 -1 0
    outer loop
      vertex -7.25 -15 -4
      vertex -4 -15 4
      vertex -7.25 -15 4
    endloop
  endfacet
  facet normal 0 -1 -0
    outer loop
      vertex -4 -15 4
      vertex -7.25 -15 -4
      vertex -4 -15 -4
    endloop
  endfacet
  facet normal 0 -1 0
    outer loop
      vertex -22.75 -15 -4
      vertex -8 -15 4
      vertex -22.75 -15 4
    endloop
  endfacet
  facet normal 0 -1 -0
    outer loop
      vertex -8 -15 4
      vertex -22.75 -15 -4
      vertex -8 -15 -4
    endloop
  endfacet
  facet normal 0 -1 0
    outer loop
      vertex -8 -19 -4
      vertex -7.25 -19 4
      vertex -8 -19 4
    endloop
  endfacet
  facet normal 0 -1 -0
    outer loop
      vertex -7.25 -19 4
      vertex -8 -19 -4
      vertex -7.25 -19 -4
    endloop
  endfacet
  facet normal 0 0.06279 -0.998027
    outer loop
      vertex -4 0 -4
      vertex 0 0.501332 -3.96846
      vertex 0 0 -4
    endloop
  endfacet
  facet normal 0 0.06279 -0.998027
    outer loop
      vertex 0 0.501332 -3.96846
      vertex -4 0 -4
      vertex -4 0.501332 -3.96846
    endloop
  endfacet
  facet normal -0 0.0627918 0.998027
    outer loop
      vertex -4 0.501332 3.96846
      vertex 0 0 4
      vertex 0 0.501332 3.96846
    endloop
  endfacet
  facet normal 0 0.0627918 0.998027
    outer loop
      vertex 0 0 4
      vertex -4 0.501332 3.96846
      vertex -4 0 4
    endloop
  endfacet
  facet normal 0 -1 0
    outer loop
      vertex -1 -3.99211 -0.251163
      vertex 0 -3.99211 0.251162
      vertex -1 -3.99211 0.251162
    endloop
  endfacet
  facet normal 0 -1 -0
    outer loop
      vertex 0 -3.99211 0.251162
      vertex -1 -3.99211 -0.251163
      vertex 0 -3.99211 -0.251163
    endloop
  endfacet
  facet normal 0 0.72897 -0.684546
    outer loop
      vertex 0 2.73819 -2.91588
      vertex -4 3.08205 -2.5497
      vertex 0 3.08205 -2.5497
    endloop
  endfacet
  facet normal 0 0.72897 -0.684546
    outer loop
      vertex -4 3.08205 -2.5497
      vertex 0 2.73819 -2.91588
      vertex -4 2.73819 -2.91588
    endloop
  endfacet
  facet normal 0 0.72897 0.684546
    outer loop
      vertex 0 3.08205 2.5497
      vertex -4 2.73819 2.91587
      vertex 0 2.73819 2.91587
    endloop
  endfacet
  facet normal 0 0.72897 0.684546
    outer loop
      vertex -4 2.73819 2.91587
      vertex 0 3.08205 2.5497
      vertex -4 3.08205 2.5497
    endloop
  endfacet
  facet normal 0 0.929776 0.368126
    outer loop
      vertex 0 3.80423 1.23607
      vertex -4 3.61931 1.70312
      vertex 0 3.61931 1.70312
    endloop
  endfacet
  facet normal 0 0.929776 0.368126
    outer loop
      vertex -4 3.61931 1.70312
      vertex 0 3.80423 1.23607
      vertex -4 3.80423 1.23607
    endloop
  endfacet
  facet normal 0 -0.42578 -0.904827
    outer loop
      vertex -4 -1.92702 -3.50523
      vertex 0 -1.4725 -3.71911
      vertex 0 -1.92702 -3.50523
    endloop
  endfacet
  facet normal -0 -0.42578 -0.904827
    outer loop
      vertex 0 -1.4725 -3.71911
      vertex -4 -1.92702 -3.50523
      vertex -4 -1.4725 -3.71911
    endloop
  endfacet
  facet normal 0 0.535826 -0.844328
    outer loop
      vertex -4 1.92701 -3.50523
      vertex 0 2.35114 -3.23607
      vertex 0 1.92701 -3.50523
    endloop
  endfacet
  facet normal 0 0.535826 -0.844328
    outer loop
      vertex 0 2.35114 -3.23607
      vertex -4 1.92701 -3.50523
      vertex -4 2.35114 -3.23607
    endloop
  endfacet
  facet normal 0 0.929776 -0.368126
    outer loop
      vertex 0 3.61931 -1.70312
      vertex -4 3.80423 -1.23607
      vertex 0 3.80423 -1.23607
    endloop
  endfacet
  facet normal 0 0.929776 -0.368126
    outer loop
      vertex -4 3.80423 -1.23607
      vertex 0 3.61931 -1.70312
      vertex -4 3.61931 -1.70312
    endloop
  endfacet
  facet normal 0 0.968583 -0.24869
    outer loop
      vertex 0 3.80423 -1.23607
      vertex -4 3.92915 -0.749526
      vertex 0 3.92915 -0.749526
    endloop
  endfacet
  facet normal 0 0.968583 -0.24869
    outer loop
      vertex -4 3.92915 -0.749526
      vertex 0 3.80423 -1.23607
      vertex -4 3.80423 -1.23607
    endloop
  endfacet
  facet normal 0 0.809017 -0.587785
    outer loop
      vertex 0 3.08205 -2.5497
      vertex -4 3.37731 -2.14331
      vertex 0 3.37731 -2.14331
    endloop
  endfacet
  facet normal 0 0.809017 -0.587785
    outer loop
      vertex -4 3.37731 -2.14331
      vertex 0 3.08205 -2.5497
      vertex -4 3.08205 -2.5497
    endloop
  endfacet
  facet normal -0 0.42578 0.904827
    outer loop
      vertex -4 1.92701 3.50523
      vertex 0 1.4725 3.71911
      vertex 0 1.92701 3.50523
    endloop
  endfacet
  facet normal 0 0.42578 0.904827
    outer loop
      vertex 0 1.4725 3.71911
      vertex -4 1.92701 3.50523
      vertex -4 1.4725 3.71911
    endloop
  endfacet
  facet normal -0 0.637424 0.770513
    outer loop
      vertex -4 2.73819 2.91587
      vertex 0 2.35114 3.23607
      vertex 0 2.73819 2.91587
    endloop
  endfacet
  facet normal 0 0.637424 0.770513
    outer loop
      vertex 0 2.35114 3.23607
      vertex -4 2.73819 2.91587
      vertex -4 2.35114 3.23607
    endloop
  endfacet
  facet normal -0 0.309017 0.951057
    outer loop
      vertex -4 1.4725 3.71911
      vertex 0 0.994759 3.87433
      vertex 0 1.4725 3.71911
    endloop
  endfacet
  facet normal 0 0.309017 0.951057
    outer loop
      vertex 0 0.994759 3.87433
      vertex -4 1.4725 3.71911
      vertex -4 0.994759 3.87433
    endloop
  endfacet
  facet normal 0 0.876307 0.481754
    outer loop
      vertex 0 3.61931 1.70312
      vertex -4 3.37731 2.14331
      vertex 0 3.37731 2.14331
    endloop
  endfacet
  facet normal 0 0.876307 0.481754
    outer loop
      vertex -4 3.37731 2.14331
      vertex 0 3.61931 1.70312
      vertex -4 3.61931 1.70312
    endloop
  endfacet
  facet normal 0 0.968583 0.24869
    outer loop
      vertex 0 3.92915 0.749525
      vertex -4 3.80423 1.23607
      vertex 0 3.80423 1.23607
    endloop
  endfacet
  facet normal 0 0.968583 0.24869
    outer loop
      vertex -4 3.80423 1.23607
      vertex 0 3.92915 0.749525
      vertex -4 3.92915 0.749525
    endloop
  endfacet
  facet normal 0 -0.187381 -0.982287
    outer loop
      vertex -4 -0.99476 -3.87433
      vertex 0 -0.501333 -3.96846
      vertex 0 -0.99476 -3.87433
    endloop
  endfacet
  facet normal -0 -0.187381 -0.982287
    outer loop
      vertex 0 -0.501333 -3.96846
      vertex -4 -0.99476 -3.87433
      vertex -4 -0.501333 -3.96846
    endloop
  endfacet
  facet normal 0 -0.992115 -0.125333
    outer loop
      vertex -1 -3.92915 -0.749526
      vertex 0 -3.99211 -0.251163
      vertex -1 -3.99211 -0.251163
    endloop
  endfacet
  facet normal 0 -0.992115 -0.125333
    outer loop
      vertex 0 -3.99211 -0.251163
      vertex -1 -3.92915 -0.749526
      vertex 0 -3.92915 -0.749526
    endloop
  endfacet
  facet normal 0 -0.929776 -0.368126
    outer loop
      vertex -1 -3.61931 -1.70312
      vertex 0 -3.80423 -1.23607
      vertex -1 -3.80423 -1.23607
    endloop
  endfacet
  facet normal 0 -0.929776 -0.368126
    outer loop
      vertex 0 -3.80423 -1.23607
      vertex -1 -3.61931 -1.70312
      vertex 0 -3.61931 -1.70312
    endloop
  endfacet
  facet normal 0 0.187381 -0.982287
    outer loop
      vertex -4 0.501332 -3.96846
      vertex 0 0.994759 -3.87433
      vertex 0 0.501332 -3.96846
    endloop
  endfacet
  facet normal 0 0.187381 -0.982287
    outer loop
      vertex 0 0.994759 -3.87433
      vertex -4 0.501332 -3.96846
      vertex -4 0.994759 -3.87433
    endloop
  endfacet
  facet normal 0 0.42578 -0.904827
    outer loop
      vertex -4 1.4725 -3.71911
      vertex 0 1.92701 -3.50523
      vertex 0 1.4725 -3.71911
    endloop
  endfacet
  facet normal 0 0.42578 -0.904827
    outer loop
      vertex 0 1.92701 -3.50523
      vertex -4 1.4725 -3.71911
      vertex -4 1.92701 -3.50523
    endloop
  endfacet
  facet normal 0 0.637424 -0.770513
    outer loop
      vertex -4 2.35114 -3.23607
      vertex 0 2.73819 -2.91588
      vertex 0 2.35114 -3.23607
    endloop
  endfacet
  facet normal 0 0.637424 -0.770513
    outer loop
      vertex 0 2.73819 -2.91588
      vertex -4 2.35114 -3.23607
      vertex -4 2.73819 -2.91588
    endloop
  endfacet
  facet normal 0 0.992115 -0.125333
    outer loop
      vertex 0 3.92915 -0.749526
      vertex -4 3.99211 -0.251163
      vertex 0 3.99211 -0.251163
    endloop
  endfacet
  facet normal 0 0.992115 -0.125333
    outer loop
      vertex -4 3.99211 -0.251163
      vertex 0 3.92915 -0.749526
      vertex -4 3.92915 -0.749526
    endloop
  endfacet
  facet normal 0 0.876307 -0.481754
    outer loop
      vertex 0 3.37731 -2.14331
      vertex -4 3.61931 -1.70312
      vertex 0 3.61931 -1.70312
    endloop
  endfacet
  facet normal 0 0.876307 -0.481754
    outer loop
      vertex -4 3.61931 -1.70312
      vertex 0 3.37731 -2.14331
      vertex -4 3.37731 -2.14331
    endloop
  endfacet
  facet normal -0 0.535826 0.844328
    outer loop
      vertex -4 2.35114 3.23607
      vertex 0 1.92701 3.50523
      vertex 0 2.35114 3.23607
    endloop
  endfacet
  facet normal 0 0.535826 0.844328
    outer loop
      vertex 0 1.92701 3.50523
      vertex -4 2.35114 3.23607
      vertex -4 1.92701 3.50523
    endloop
  endfacet
  facet normal -0 0.187381 0.982287
    outer loop
      vertex -4 0.994759 3.87433
      vertex 0 0.501332 3.96846
      vertex 0 0.994759 3.87433
    endloop
  endfacet
  facet normal 0 0.187381 0.982287
    outer loop
      vertex 0 0.501332 3.96846
      vertex -4 0.994759 3.87433
      vertex -4 0.501332 3.96846
    endloop
  endfacet
  facet normal 0 0.809017 0.587785
    outer loop
      vertex 0 3.37731 2.14331
      vertex -4 3.08205 2.5497
      vertex 0 3.08205 2.5497
    endloop
  endfacet
  facet normal 0 0.809017 0.587785
    outer loop
      vertex -4 3.08205 2.5497
      vertex 0 3.37731 2.14331
      vertex -4 3.37731 2.14331
    endloop
  endfacet
  facet normal 0 0.992115 0.125333
    outer loop
      vertex 0 3.99211 0.251162
      vertex -4 3.92915 0.749525
      vertex 0 3.92915 0.749525
    endloop
  endfacet
  facet normal 0 0.992115 0.125333
    outer loop
      vertex -4 3.92915 0.749525
      vertex 0 3.99211 0.251162
      vertex -4 3.99211 0.251162
    endloop
  endfacet
  facet normal 0 -0.0627898 -0.998027
    outer loop
      vertex -4 -0.501333 -3.96846
      vertex 0 0 -4
      vertex 0 -0.501333 -3.96846
    endloop
  endfacet
  facet normal -0 -0.0627898 -0.998027
    outer loop
      vertex 0 0 -4
      vertex -4 -0.501333 -3.96846
      vertex -4 0 -4
    endloop
  endfacet
  facet normal 0 -0.637424 -0.770513
    outer loop
      vertex -4 -2.73819 -2.91588
      vertex 0 -2.35114 -3.23607
      vertex 0 -2.73819 -2.91588
    endloop
  endfacet
  facet normal -0 -0.637424 -0.770513
    outer loop
      vertex 0 -2.35114 -3.23607
      vertex -4 -2.73819 -2.91588
      vertex -4 -2.35114 -3.23607
    endloop
  endfacet
  facet normal 0 -0.309017 -0.951057
    outer loop
      vertex -4 -1.4725 -3.71911
      vertex 0 -0.99476 -3.87433
      vertex 0 -1.4725 -3.71911
    endloop
  endfacet
  facet normal -0 -0.309017 -0.951057
    outer loop
      vertex 0 -0.99476 -3.87433
      vertex -4 -1.4725 -3.71911
      vertex -4 -0.99476 -3.87433
    endloop
  endfacet
  facet normal 0 -0.637424 0.770513
    outer loop
      vertex -4 -2.35114 3.23607
      vertex 0 -2.73819 2.91587
      vertex 0 -2.35114 3.23607
    endloop
  endfacet
  facet normal 0 -0.637424 0.770513
    outer loop
      vertex 0 -2.73819 2.91587
      vertex -4 -2.35114 3.23607
      vertex -4 -2.73819 2.91587
    endloop
  endfacet
  facet normal 1 0 0
    outer loop
      vertex 0 1.74655 0.109883
      vertex 0 3.99211 0.251162
      vertex 0 3.92915 0.749525
    endloop
  endfacet
  facet normal 1 0 0
    outer loop
      vertex 0 3.99211 0.251162
      vertex 0 1.74655 0.109883
      vertex 0 3.99211 -0.251163
    endloop
  endfacet
  facet normal 1 0 0
    outer loop
      vertex 0 1.719 0.327917
      vertex 0 3.92915 0.749525
      vertex 0 3.80423 1.23607
    endloop
  endfacet
  facet normal 1 -0 0
    outer loop
      vertex 0 1.74655 -0.109884
      vertex 0 3.99211 -0.251163
      vertex 0 1.74655 0.109883
    endloop
  endfacet
  facet normal 1 0 0
    outer loop
      vertex 0 1.66435 0.540779
      vertex 0 3.80423 1.23607
      vertex 0 3.61931 1.70312
    endloop
  endfacet
  facet normal 1 0 0
    outer loop
      vertex 0 3.99211 -0.251163
      vertex 0 1.74655 -0.109884
      vertex 0 3.92915 -0.749526
    endloop
  endfacet
  facet normal 1 0 0
    outer loop
      vertex 0 1.58345 0.745113
      vertex 0 3.61931 1.70312
      vertex 0 3.37731 2.14331
    endloop
  endfacet
  facet normal 1 -0 0
    outer loop
      vertex 0 1.719 -0.327918
      vertex 0 3.92915 -0.749526
      vertex 0 1.74655 -0.109884
    endloop
  endfacet
  facet normal 1 0 0
    outer loop
      vertex 0 1.47757 0.937696
      vertex 0 3.37731 2.14331
      vertex 0 3.08205 2.5497
    endloop
  endfacet
  facet normal 1 0 0
    outer loop
      vertex 0 3.92915 -0.749526
      vertex 0 1.719 -0.327918
      vertex 0 3.80423 -1.23607
    endloop
  endfacet
  facet normal 1 0 0
    outer loop
      vertex 0 1.3484 1.11549
      vertex 0 3.08205 2.5497
      vertex 0 2.73819 2.91587
    endloop
  endfacet
  facet normal 1 -0 0
    outer loop
      vertex 0 1.66435 -0.54078
      vertex 0 3.80423 -1.23607
      vertex 0 1.719 -0.327918
    endloop
  endfacet
  facet normal 1 0 0
    outer loop
      vertex 0 1.19796 1.27569
      vertex 0 2.73819 2.91587
      vertex 0 2.35114 3.23607
    endloop
  endfacet
  facet normal 1 0 0
    outer loop
      vertex 0 3.80423 -1.23607
      vertex 0 1.66435 -0.54078
      vertex 0 3.61931 -1.70312
    endloop
  endfacet
  facet normal 1 0 0
    outer loop
      vertex 0 1.02862 1.41578
      vertex 0 2.35114 3.23607
      vertex 0 1.92701 3.50523
    endloop
  endfacet
  facet normal 1 -0 0
    outer loop
      vertex 0 1.58345 -0.745114
      vertex 0 3.61931 -1.70312
      vertex 0 1.66435 -0.54078
    endloop
  endfacet
  facet normal 1 0 0
    outer loop
      vertex 0 3.61931 -1.70312
      vertex 0 1.58345 -0.745114
      vertex 0 3.37731 -2.14331
    endloop
  endfacet
  facet normal 1 0 0
    outer loop
      vertex 0 3.92915 0.749525
      vertex 0 1.719 0.327917
      vertex 0 1.74655 0.109883
    endloop
  endfacet
  facet normal 1 0 0
    outer loop
      vertex 0 3.80423 1.23607
      vertex 0 1.66435 0.540779
      vertex 0 1.719 0.327917
    endloop
  endfacet
  facet normal 1 0 0
    outer loop
      vertex 0 3.61931 1.70312
      vertex 0 1.58345 0.745113
      vertex 0 1.66435 0.540779
    endloop
  endfacet
  facet normal 1 0 0
    outer loop
      vertex 0 3.37731 2.14331
      vertex 0 1.47757 0.937696
      vertex 0 1.58345 0.745113
    endloop
  endfacet
  facet normal 1 0 0
    outer loop
      vertex 0 0.843068 1.53354
      vertex 0 1.92701 3.50523
      vertex 0 1.4725 3.71911
    endloop
  endfacet
  facet normal 1 0 0
    outer loop
      vertex 0 3.08205 2.5497
      vertex 0 1.3484 1.11549
      vertex 0 1.47757 0.937696
    endloop
  endfacet
  facet normal 1 0 0
    outer loop
      vertex 0 2.73819 2.91587
      vertex 0 1.19796 1.27569
      vertex 0 1.3484 1.11549
    endloop
  endfacet
  facet normal 1 0 0
    outer loop
      vertex 0 2.35114 3.23607
      vertex 0 1.02862 1.41578
      vertex 0 1.19796 1.27569
    endloop
  endfacet
  facet normal 1 0 0
    outer loop
      vertex 0 0.644217 1.62711
      vertex 0 1.4725 3.71911
      vertex 0 0.994759 3.87433
    endloop
  endfacet
  facet normal 1 0 0
    outer loop
      vertex 0 1.92701 3.50523
      vertex 0 0.843068 1.53354
      vertex 0 1.02862 1.41578
    endloop
  endfacet
  facet normal 1 0 0
    outer loop
      vertex 0 1.4725 3.71911
      vertex 0 0.644217 1.62711
      vertex 0 0.843068 1.53354
    endloop
  endfacet
  facet normal 1 0 0
    outer loop
      vertex 0 0.435206 1.69502
      vertex 0 0.994759 3.87433
      vertex 0 0.501332 3.96846
    endloop
  endfacet
  facet normal 1 0 0
    outer loop
      vertex 0 0.994759 3.87433
      vertex 0 0.435206 1.69502
      vertex 0 0.644217 1.62711
    endloop
  endfacet
  facet normal 1 0 0
    outer loop
      vertex 0 0.501332 3.96846
      vertex 0 0.219333 1.7362
      vertex 0 0.435206 1.69502
    endloop
  endfacet
  facet normal 1 0 0
    outer loop
      vertex 0 0 4
      vertex 0 0.219333 1.7362
      vertex 0 0.501332 3.96846
    endloop
  endfacet
  facet normal 1 0 0
    outer loop
      vertex 0 0 4
      vertex 0 0 1.75
      vertex 0 0.219333 1.7362
    endloop
  endfacet
  facet normal 1 0 0
    outer loop
      vertex 0 0 4
      vertex 0 -0.219334 1.7362
      vertex 0 0 1.75
    endloop
  endfacet
  facet normal 1 -0 0
    outer loop
      vertex 0 -0.501333 3.96846
      vertex 0 -0.219334 1.7362
      vertex 0 0 4
    endloop
  endfacet
  facet normal 1 0 0
    outer loop
      vertex 0 -0.219334 1.7362
      vertex 0 -0.501333 3.96846
      vertex 0 -0.435207 1.69502
    endloop
  endfacet
  facet normal 1 -0 0
    outer loop
      vertex 0 -0.99476 3.87433
      vertex 0 -0.435207 1.69502
      vertex 0 -0.501333 3.96846
    endloop
  endfacet
  facet normal 1 0 0
    outer loop
      vertex 0 -0.435207 1.69502
      vertex 0 -0.99476 3.87433
      vertex 0 -0.644218 1.62711
    endloop
  endfacet
  facet normal 1 -0 0
    outer loop
      vertex 0 -1.4725 3.71911
      vertex 0 -0.644218 1.62711
      vertex 0 -0.99476 3.87433
    endloop
  endfacet
  facet normal 1 0 0
    outer loop
      vertex 0 -0.644218 1.62711
      vertex 0 -1.4725 3.71911
      vertex 0 -0.843069 1.53354
    endloop
  endfacet
  facet normal 1 -0 0
    outer loop
      vertex 0 -1.92702 3.50523
      vertex 0 -0.843069 1.53354
      vertex 0 -1.4725 3.71911
    endloop
  endfacet
  facet normal 1 0 0
    outer loop
      vertex 0 -0.843069 1.53354
      vertex 0 -1.92702 3.50523
      vertex 0 -1.02862 1.41578
    endloop
  endfacet
  facet normal 1 -0 0
    outer loop
      vertex 0 -2.35114 3.23607
      vertex 0 -1.02862 1.41578
      vertex 0 -1.92702 3.50523
    endloop
  endfacet
  facet normal 1 0 0
    outer loop
      vertex 0 -1.02862 1.41578
      vertex 0 -2.35114 3.23607
      vertex 0 -1.19796 1.27569
    endloop
  endfacet
  facet normal 1 -0 0
    outer loop
      vertex 0 -2.73819 2.91587
      vertex 0 -1.19796 1.27569
      vertex 0 -2.35114 3.23607
    endloop
  endfacet
  facet normal 1 0 0
    outer loop
      vertex 0 -1.19796 1.27569
      vertex 0 -2.73819 2.91587
      vertex 0 -1.3484 1.11549
    endloop
  endfacet
  facet normal 1 -0 0
    outer loop
      vertex 0 -3.08205 2.5497
      vertex 0 -1.3484 1.11549
      vertex 0 -2.73819 2.91587
    endloop
  endfacet
  facet normal 1 0 0
    outer loop
      vertex 0 -1.3484 1.11549
      vertex 0 -3.08205 2.5497
      vertex 0 -1.47757 0.937696
    endloop
  endfacet
  facet normal 1 0 0
    outer loop
      vertex 0 -1.47757 0.937696
      vertex 0 -3.37731 2.14331
      vertex 0 -1.58345 0.745113
    endloop
  endfacet
  facet normal 1 -0 0
    outer loop
      vertex 0 -3.37731 2.14331
      vertex 0 -1.47757 0.937696
      vertex 0 -3.08205 2.5497
    endloop
  endfacet
  facet normal 1 -0 0
    outer loop
      vertex 0 1.47757 -0.937697
      vertex 0 3.37731 -2.14331
      vertex 0 1.58345 -0.745114
    endloop
  endfacet
  facet normal 1 0 0
    outer loop
      vertex 0 3.37731 -2.14331
      vertex 0 1.47757 -0.937697
      vertex 0 3.08205 -2.5497
    endloop
  endfacet
  facet normal 1 -0 0
    outer loop
      vertex 0 1.3484 -1.11549
      vertex 0 3.08205 -2.5497
      vertex 0 1.47757 -0.937697
    endloop
  endfacet
  facet normal 1 0 0
    outer loop
      vertex 0 3.08205 -2.5497
      vertex 0 1.3484 -1.11549
      vertex 0 2.73819 -2.91588
    endloop
  endfacet
  facet normal 1 -0 0
    outer loop
      vertex 0 1.19796 -1.2757
      vertex 0 2.73819 -2.91588
      vertex 0 1.3484 -1.11549
    endloop
  endfacet
  facet normal 1 0 0
    outer loop
      vertex 0 2.73819 -2.91588
      vertex 0 1.19796 -1.2757
      vertex 0 2.35114 -3.23607
    endloop
  endfacet
  facet normal 1 -0 0
    outer loop
      vertex 0 1.02862 -1.41578
      vertex 0 2.35114 -3.23607
      vertex 0 1.19796 -1.2757
    endloop
  endfacet
  facet normal 1 0 0
    outer loop
      vertex 0 2.35114 -3.23607
      vertex 0 1.02862 -1.41578
      vertex 0 1.92701 -3.50523
    endloop
  endfacet
  facet normal 1 -0 0
    outer loop
      vertex 0 0.843068 -1.53354
      vertex 0 1.92701 -3.50523
      vertex 0 1.02862 -1.41578
    endloop
  endfacet
  facet normal 1 0 0
    outer loop
      vertex 0 1.92701 -3.50523
      vertex 0 0.843068 -1.53354
      vertex 0 1.4725 -3.71911
    endloop
  endfacet
  facet normal 1 -0 0
    outer loop
      vertex 0 0.644217 -1.62711
      vertex 0 1.4725 -3.71911
      vertex 0 0.843068 -1.53354
    endloop
  endfacet
  facet normal 1 0 0
    outer loop
      vertex 0 1.4725 -3.71911
      vertex 0 0.644217 -1.62711
      vertex 0 0.994759 -3.87433
    endloop
  endfacet
  facet normal 1 -0 0
    outer loop
      vertex 0 0.435206 -1.69502
      vertex 0 0.994759 -3.87433
      vertex 0 0.644217 -1.62711
    endloop
  endfacet
  facet normal 1 0 0
    outer loop
      vertex 0 0.994759 -3.87433
      vertex 0 0.435206 -1.69502
      vertex 0 0.501332 -3.96846
    endloop
  endfacet
  facet normal 1 -0 0
    outer loop
      vertex 0 0.219333 -1.7362
      vertex 0 0.501332 -3.96846
      vertex 0 0.435206 -1.69502
    endloop
  endfacet
  facet normal 1 -0 0
    outer loop
      vertex 0 0 -1.75
      vertex 0 0.501332 -3.96846
      vertex 0 0.219333 -1.7362
    endloop
  endfacet
  facet normal 1 0 0
    outer loop
      vertex 0 0 -1.75
      vertex 0 0 -4
      vertex 0 0.501332 -3.96846
    endloop
  endfacet
  facet normal 1 0 0
    outer loop
      vertex 0 -0.219334 -1.7362
      vertex 0 0 -4
      vertex 0 0 -1.75
    endloop
  endfacet
  facet normal 1 0 0
    outer loop
      vertex 0 -0.501333 -3.96846
      vertex 0 -0.219334 -1.7362
      vertex 0 -0.435207 -1.69502
    endloop
  endfacet
  facet normal 1 0 0
    outer loop
      vertex 0 -0.219334 -1.7362
      vertex 0 -0.501333 -3.96846
      vertex 0 0 -4
    endloop
  endfacet
  facet normal 1 0 0
    outer loop
      vertex 0 -0.99476 -3.87433
      vertex 0 -0.435207 -1.69502
      vertex 0 -0.644218 -1.62711
    endloop
  endfacet
  facet normal 1 0 0
    outer loop
      vertex 0 -1.4725 -3.71911
      vertex 0 -0.644218 -1.62711
      vertex 0 -0.843069 -1.53354
    endloop
  endfacet
  facet normal 1 0 0
    outer loop
      vertex 0 -0.435207 -1.69502
      vertex 0 -0.99476 -3.87433
      vertex 0 -0.501333 -3.96846
    endloop
  endfacet
  facet normal 1 0 0
    outer loop
      vertex 0 -1.92702 -3.50523
      vertex 0 -0.843069 -1.53354
      vertex 0 -1.02862 -1.41578
    endloop
  endfacet
  facet normal 1 0 0
    outer loop
      vertex 0 -2.35114 -3.23607
      vertex 0 -1.02862 -1.41578
      vertex 0 -1.19796 -1.2757
    endloop
  endfacet
  facet normal 1 0 0
    outer loop
      vertex 0 -2.73819 -2.91588
      vertex 0 -1.19796 -1.2757
      vertex 0 -1.3484 -1.11549
    endloop
  endfacet
  facet normal 1 0 0
    outer loop
      vertex 0 -0.644218 -1.62711
      vertex 0 -1.4725 -3.71911
      vertex 0 -0.99476 -3.87433
    endloop
  endfacet
  facet normal 1 0 0
    outer loop
      vertex 0 -3.08205 -2.5497
      vertex 0 -1.3484 -1.11549
      vertex 0 -1.47757 -0.937697
    endloop
  endfacet
  facet normal 1 0 0
    outer loop
      vertex 0 -3.37731 -2.14331
      vertex 0 -1.47757 -0.937697
      vertex 0 -1.58345 -0.745114
    endloop
  endfacet
  facet normal 1 0 0
    outer loop
      vertex 0 -3.61931 -1.70312
      vertex 0 -1.58345 -0.745114
      vertex 0 -1.66435 -0.54078
    endloop
  endfacet
  facet normal 1 0 0
    outer loop
      vertex 0 -3.80423 -1.23607
      vertex 0 -1.66435 -0.54078
      vertex 0 -1.719 -0.327918
    endloop
  endfacet
  facet normal 1 0 0
    outer loop
      vertex 0 -3.92915 -0.749526
      vertex 0 -1.719 -0.327918
      vertex 0 -1.74655 -0.109884
    endloop
  endfacet
  facet normal 1 0 0
    outer loop
      vertex 0 -0.843069 -1.53354
      vertex 0 -1.92702 -3.50523
      vertex 0 -1.4725 -3.71911
    endloop
  endfacet
  facet normal 1 -0 0
    outer loop
      vertex 0 -3.61931 1.70312
      vertex 0 -1.58345 0.745113
      vertex 0 -3.37731 2.14331
    endloop
  endfacet
  facet normal 1 0 0
    outer loop
      vertex 0 -1.58345 0.745113
      vertex 0 -3.61931 1.70312
      vertex 0 -1.66435 0.540779
    endloop
  endfacet
  facet normal 1 0 0
    outer loop
      vertex 0 -1.02862 -1.41578
      vertex 0 -2.35114 -3.23607
      vertex 0 -1.92702 -3.50523
    endloop
  endfacet
  facet normal 1 -0 0
    outer loop
      vertex 0 -3.80423 1.23607
      vertex 0 -1.66435 0.540779
      vertex 0 -3.61931 1.70312
    endloop
  endfacet
  facet normal 1 0 0
    outer loop
      vertex 0 -1.19796 -1.2757
      vertex 0 -2.73819 -2.91588
      vertex 0 -2.35114 -3.23607
    endloop
  endfacet
  facet normal 1 0 0
    outer loop
      vertex 0 -1.66435 0.540779
      vertex 0 -3.80423 1.23607
      vertex 0 -1.719 0.327917
    endloop
  endfacet
  facet normal 1 0 0
    outer loop
      vertex 0 -1.3484 -1.11549
      vertex 0 -3.08205 -2.5497
      vertex 0 -2.73819 -2.91588
    endloop
  endfacet
  facet normal 1 -0 0
    outer loop
      vertex 0 -3.92915 0.749525
      vertex 0 -1.719 0.327917
      vertex 0 -3.80423 1.23607
    endloop
  endfacet
  facet normal 1 0 0
    outer loop
      vertex 0 -1.47757 -0.937697
      vertex 0 -3.37731 -2.14331
      vertex 0 -3.08205 -2.5497
    endloop
  endfacet
  facet normal 1 0 0
    outer loop
      vertex 0 -1.719 0.327917
      vertex 0 -3.92915 0.749525
      vertex 0 -1.74655 0.109883
    endloop
  endfacet
  facet normal 1 0 0
    outer loop
      vertex 0 -1.58345 -0.745114
      vertex 0 -3.61931 -1.70312
      vertex 0 -3.37731 -2.14331
    endloop
  endfacet
  facet normal 1 -0 0
    outer loop
      vertex 0 -3.99211 0.251162
      vertex 0 -1.74655 0.109883
      vertex 0 -3.92915 0.749525
    endloop
  endfacet
  facet normal 1 0 0
    outer loop
      vertex 0 -1.66435 -0.54078
      vertex 0 -3.80423 -1.23607
      vertex 0 -3.61931 -1.70312
    endloop
  endfacet
  facet normal 1 0 0
    outer loop
      vertex 0 -1.74655 0.109883
      vertex 0 -3.99211 0.251162
      vertex 0 -1.74655 -0.109884
    endloop
  endfacet
  facet normal 1 0 0
    outer loop
      vertex 0 -1.719 -0.327918
      vertex 0 -3.92915 -0.749526
      vertex 0 -3.80423 -1.23607
    endloop
  endfacet
  facet normal 1 0 0
    outer loop
      vertex 0 -3.99211 -0.251163
      vertex 0 -1.74655 -0.109884
      vertex 0 -3.99211 0.251162
    endloop
  endfacet
  facet normal 1 0 0
    outer loop
      vertex 0 -1.74655 -0.109884
      vertex 0 -3.99211 -0.251163
      vertex 0 -3.92915 -0.749526
    endloop
  endfacet
  facet normal 1 0 0
    outer loop
      vertex -4 -3.37731 2.14331
      vertex -4 -3.76375 1.85955
      vertex -4 -3.58067 1.7734
    endloop
  endfacet
  facet normal 1 0 0
    outer loop
      vertex -4 -4.24933 1.98423
      vertex -4 -3.37731 2.14331
      vertex -4 -3.08205 2.5497
    endloop
  endfacet
  facet normal 1 0 0
    outer loop
      vertex -4 -4.5 2
      vertex -4 -3.08205 2.5497
      vertex -4 -2.73819 2.91587
    endloop
  endfacet
  facet normal 1 0 0
    outer loop
      vertex -4 -3.37731 2.14331
      vertex -4 -4.00262 1.93717
      vertex -4 -3.76375 1.85955
    endloop
  endfacet
  facet normal 1 0 0
    outer loop
      vertex -4 -4.99738 1.93717
      vertex -4 -2.73819 2.91587
      vertex -4 -2.35114 3.23607
    endloop
  endfacet
  facet normal 1 0 0
    outer loop
      vertex -4 -3.37731 2.14331
      vertex -4 -4.24933 1.98423
      vertex -4 -4.00262 1.93717
    endloop
  endfacet
  facet normal 1 0 0
    outer loop
      vertex -4 -3.08205 2.5497
      vertex -4 -4.5 2
      vertex -4 -4.24933 1.98423
    endloop
  endfacet
  facet normal 1 0 0
    outer loop
      vertex -4 -15 4
      vertex -4 -2.35114 3.23607
      vertex -4 -1.92702 3.50523
    endloop
  endfacet
  facet normal 1 0 0
    outer loop
      vertex -4 -2.73819 2.91587
      vertex -4 -4.75067 1.98423
      vertex -4 -4.5 2
    endloop
  endfacet
  facet normal 1 0 0
    outer loop
      vertex -4 -2.73819 2.91587
      vertex -4 -4.99738 1.93717
      vertex -4 -4.75067 1.98423
    endloop
  endfacet
  facet normal 1 0 0
    outer loop
      vertex -4 -2.35114 3.23607
      vertex -4 -15 4
      vertex -4 -4.99738 1.93717
    endloop
  endfacet
  facet normal 1 0 0
    outer loop
      vertex -4 -4.99738 1.93717
      vertex -4 -15 4
      vertex -4 -5.23625 1.85955
    endloop
  endfacet
  facet normal 1 0 0
    outer loop
      vertex -4 -6.49605 0.125581
      vertex -4 -15 4
      vertex -4 -6.49605 -0.125582
    endloop
  endfacet
  facet normal 1 0 0
    outer loop
      vertex -4 -6.46457 0.374763
      vertex -4 -15 4
      vertex -4 -6.49605 0.125581
    endloop
  endfacet
  facet normal 1 0 0
    outer loop
      vertex -4 -6.40211 0.618033
      vertex -4 -15 4
      vertex -4 -6.46457 0.374763
    endloop
  endfacet
  facet normal 1 0 0
    outer loop
      vertex -4 -6.30965 0.851558
      vertex -4 -15 4
      vertex -4 -6.40211 0.618033
    endloop
  endfacet
  facet normal 1 0 0
    outer loop
      vertex -4 -6.18866 1.07165
      vertex -4 -15 4
      vertex -4 -6.30965 0.851558
    endloop
  endfacet
  facet normal 1 0 0
    outer loop
      vertex -4 -6.04103 1.27485
      vertex -4 -15 4
      vertex -4 -6.18866 1.07165
    endloop
  endfacet
  facet normal 1 0 0
    outer loop
      vertex -4 -5.86909 1.45794
      vertex -4 -15 4
      vertex -4 -6.04103 1.27485
    endloop
  endfacet
  facet normal 1 0 0
    outer loop
      vertex -4 -5.67557 1.61803
      vertex -4 -15 4
      vertex -4 -5.86909 1.45794
    endloop
  endfacet
  facet normal 1 0 0
    outer loop
      vertex -4 -5.46351 1.75261
      vertex -4 -15 4
      vertex -4 -5.67557 1.61803
    endloop
  endfacet
  facet normal 1 0 0
    outer loop
      vertex -4 -5.23625 1.85955
      vertex -4 -15 4
      vertex -4 -5.46351 1.75261
    endloop
  endfacet
  facet normal 1 0 0
    outer loop
      vertex -4 -1.4725 3.71911
      vertex -4 -15 4
      vertex -4 -1.92702 3.50523
    endloop
  endfacet
  facet normal 1 0 0
    outer loop
      vertex -4 -0.99476 3.87433
      vertex -4 -15 4
      vertex -4 -1.4725 3.71911
    endloop
  endfacet
  facet normal 1 0 0
    outer loop
      vertex -4 -0.501333 3.96846
      vertex -4 -15 4
      vertex -4 -0.99476 3.87433
    endloop
  endfacet
  facet normal 1 -0 0
    outer loop
      vertex -4 -15 4
      vertex -4 -0.501333 3.96846
      vertex -4 0 4
    endloop
  endfacet
  facet normal 1 -0 0
    outer loop
      vertex -4 -3.76375 -1.85955
      vertex -4 -3.37731 -2.14331
      vertex -4 -3.58067 -1.7734
    endloop
  endfacet
  facet normal 1 -0 0
    outer loop
      vertex -4 -4.00262 -1.93717
      vertex -4 -3.37731 -2.14331
      vertex -4 -3.76375 -1.85955
    endloop
  endfacet
  facet normal 1 -0 0
    outer loop
      vertex -4 -4.24933 -1.98423
      vertex -4 -3.37731 -2.14331
      vertex -4 -4.00262 -1.93717
    endloop
  endfacet
  facet normal 1 0 0
    outer loop
      vertex -4 -3.37731 -2.14331
      vertex -4 -4.24933 -1.98423
      vertex -4 -3.08205 -2.5497
    endloop
  endfacet
  facet normal 1 -0 0
    outer loop
      vertex -4 -4.5 -2
      vertex -4 -3.08205 -2.5497
      vertex -4 -4.24933 -1.98423
    endloop
  endfacet
  facet normal 1 0 0
    outer loop
      vertex -4 -3.08205 -2.5497
      vertex -4 -4.5 -2
      vertex -4 -2.73819 -2.91588
    endloop
  endfacet
  facet normal 1 0 0
    outer loop
      vertex -4 -4.75067 -1.98423
      vertex -4 -2.73819 -2.91588
      vertex -4 -4.5 -2
    endloop
  endfacet
  facet normal 1 0 0
    outer loop
      vertex -4 -4.99738 -1.93717
      vertex -4 -2.73819 -2.91588
      vertex -4 -4.75067 -1.98423
    endloop
  endfacet
  facet normal 1 0 0
    outer loop
      vertex -4 -2.73819 -2.91588
      vertex -4 -4.99738 -1.93717
      vertex -4 -2.35114 -3.23607
    endloop
  endfacet
  facet normal 1 0 0
    outer loop
      vertex -4 -15 -4
      vertex -4 -2.35114 -3.23607
      vertex -4 -4.99738 -1.93717
    endloop
  endfacet
  facet normal 1 0 0
    outer loop
      vertex -4 -15 -4
      vertex -4 -4.99738 -1.93717
      vertex -4 -5.23625 -1.85955
    endloop
  endfacet
  facet normal 1 0 0
    outer loop
      vertex -4 -15 -4
      vertex -4 -5.23625 -1.85955
      vertex -4 -5.46351 -1.75261
    endloop
  endfacet
  facet normal 1 0 0
    outer loop
      vertex -4 -15 -4
      vertex -4 -6.49605 -0.125582
      vertex -4 -15 4
    endloop
  endfacet
  facet normal 1 0 0
    outer loop
      vertex -4 -6.49605 -0.125582
      vertex -4 -15 -4
      vertex -4 -6.46457 -0.374763
    endloop
  endfacet
  facet normal 1 0 0
    outer loop
      vertex -4 -6.46457 -0.374763
      vertex -4 -15 -4
      vertex -4 -6.40211 -0.618034
    endloop
  endfacet
  facet normal 1 0 0
    outer loop
      vertex -4 -6.40211 -0.618034
      vertex -4 -15 -4
      vertex -4 -6.30965 -0.851559
    endloop
  endfacet
  facet normal 1 0 0
    outer loop
      vertex -4 -6.30965 -0.851559
      vertex -4 -15 -4
      vertex -4 -6.18866 -1.07165
    endloop
  endfacet
  facet normal 1 0 0
    outer loop
      vertex -4 -6.18866 -1.07165
      vertex -4 -15 -4
      vertex -4 -6.04103 -1.27485
    endloop
  endfacet
  facet normal 1 0 0
    outer loop
      vertex -4 -6.04103 -1.27485
      vertex -4 -15 -4
      vertex -4 -5.86909 -1.45794
    endloop
  endfacet
  facet normal 1 0 0
    outer loop
      vertex -4 -5.86909 -1.45794
      vertex -4 -15 -4
      vertex -4 -5.67557 -1.61803
    endloop
  endfacet
  facet normal 1 0 0
    outer loop
      vertex -4 -0.501333 -3.96846
      vertex -4 -15 -4
      vertex -4 0 -4
    endloop
  endfacet
  facet normal 1 0 0
    outer loop
      vertex -4 -0.99476 -3.87433
      vertex -4 -15 -4
      vertex -4 -0.501333 -3.96846
    endloop
  endfacet
  facet normal 1 0 0
    outer loop
      vertex -4 -1.4725 -3.71911
      vertex -4 -15 -4
      vertex -4 -0.99476 -3.87433
    endloop
  endfacet
  facet normal 1 0 0
    outer loop
      vertex -4 -1.92702 -3.50523
      vertex -4 -15 -4
      vertex -4 -1.4725 -3.71911
    endloop
  endfacet
  facet normal 1 0 0
    outer loop
      vertex -4 -2.35114 -3.23607
      vertex -4 -15 -4
      vertex -4 -1.92702 -3.50523
    endloop
  endfacet
  facet normal 1 0 0
    outer loop
      vertex -4 -5.67557 -1.61803
      vertex -4 -15 -4
      vertex -4 -5.46351 -1.75261
    endloop
  endfacet
  facet normal 1 0 0
    outer loop
      vertex -4 4 4
      vertex -4 3.99211 0.251162
      vertex -4 4 -4
    endloop
  endfacet
  facet normal 1 0 0
    outer loop
      vertex -4 4 4
      vertex -4 3.92915 0.749525
      vertex -4 3.99211 0.251162
    endloop
  endfacet
  facet normal 1 0 0
    outer loop
      vertex -4 4 4
      vertex -4 3.80423 1.23607
      vertex -4 3.92915 0.749525
    endloop
  endfacet
  facet normal 1 0 0
    outer loop
      vertex -4 4 4
      vertex -4 3.61931 1.70312
      vertex -4 3.80423 1.23607
    endloop
  endfacet
  facet normal 1 0 0
    outer loop
      vertex -4 4 4
      vertex -4 3.37731 2.14331
      vertex -4 3.61931 1.70312
    endloop
  endfacet
  facet normal 1 0 0
    outer loop
      vertex -4 4 4
      vertex -4 3.08205 2.5497
      vertex -4 3.37731 2.14331
    endloop
  endfacet
  facet normal 1 0 0
    outer loop
      vertex -4 4 4
      vertex -4 2.73819 2.91587
      vertex -4 3.08205 2.5497
    endloop
  endfacet
  facet normal 1 0 0
    outer loop
      vertex -4 4 4
      vertex -4 2.35114 3.23607
      vertex -4 2.73819 2.91587
    endloop
  endfacet
  facet normal 1 0 0
    outer loop
      vertex -4 4 4
      vertex -4 1.92701 3.50523
      vertex -4 2.35114 3.23607
    endloop
  endfacet
  facet normal 1 0 0
    outer loop
      vertex -4 4 4
      vertex -4 1.4725 3.71911
      vertex -4 1.92701 3.50523
    endloop
  endfacet
  facet normal 1 0 0
    outer loop
      vertex -4 4 4
      vertex -4 0.994759 3.87433
      vertex -4 1.4725 3.71911
    endloop
  endfacet
  facet normal 1 0 0
    outer loop
      vertex -4 4 4
      vertex -4 0.501332 3.96846
      vertex -4 0.994759 3.87433
    endloop
  endfacet
  facet normal 1 0 -0
    outer loop
      vertex -4 0.501332 3.96846
      vertex -4 4 4
      vertex -4 0 4
    endloop
  endfacet
  facet normal 1 -0 0
    outer loop
      vertex -4 3.99211 -0.251163
      vertex -4 4 -4
      vertex -4 3.99211 0.251162
    endloop
  endfacet
  facet normal 1 -0 0
    outer loop
      vertex -4 3.92915 -0.749526
      vertex -4 4 -4
      vertex -4 3.99211 -0.251163
    endloop
  endfacet
  facet normal 1 -0 0
    outer loop
      vertex -4 3.80423 -1.23607
      vertex -4 4 -4
      vertex -4 3.92915 -0.749526
    endloop
  endfacet
  facet normal 1 -0 0
    outer loop
      vertex -4 3.61931 -1.70312
      vertex -4 4 -4
      vertex -4 3.80423 -1.23607
    endloop
  endfacet
  facet normal 1 -0 0
    outer loop
      vertex -4 3.37731 -2.14331
      vertex -4 4 -4
      vertex -4 3.61931 -1.70312
    endloop
  endfacet
  facet normal 1 -0 0
    outer loop
      vertex -4 3.08205 -2.5497
      vertex -4 4 -4
      vertex -4 3.37731 -2.14331
    endloop
  endfacet
  facet normal 1 -0 0
    outer loop
      vertex -4 2.73819 -2.91588
      vertex -4 4 -4
      vertex -4 3.08205 -2.5497
    endloop
  endfacet
  facet normal 1 -0 0
    outer loop
      vertex -4 2.35114 -3.23607
      vertex -4 4 -4
      vertex -4 2.73819 -2.91588
    endloop
  endfacet
  facet normal 1 -0 0
    outer loop
      vertex -4 1.92701 -3.50523
      vertex -4 4 -4
      vertex -4 2.35114 -3.23607
    endloop
  endfacet
  facet normal 1 -0 0
    outer loop
      vertex -4 1.4725 -3.71911
      vertex -4 4 -4
      vertex -4 1.92701 -3.50523
    endloop
  endfacet
  facet normal 1 -0 0
    outer loop
      vertex -4 0.994759 -3.87433
      vertex -4 4 -4
      vertex -4 1.4725 -3.71911
    endloop
  endfacet
  facet normal 1 -0 0
    outer loop
      vertex -4 0.501332 -3.96846
      vertex -4 4 -4
      vertex -4 0.994759 -3.87433
    endloop
  endfacet
  facet normal 1 0 0
    outer loop
      vertex -4 4 -4
      vertex -4 0.501332 -3.96846
      vertex -4 0 -4
    endloop
  endfacet
  facet normal 0 0.309017 -0.951057
    outer loop
      vertex -4 0.994759 -3.87433
      vertex 0 1.4725 -3.71911
      vertex 0 0.994759 -3.87433
    endloop
  endfacet
  facet normal 0 0.309017 -0.951057
    outer loop
      vertex 0 1.4725 -3.71911
      vertex -4 0.994759 -3.87433
      vertex -4 1.4725 -3.71911
    endloop
  endfacet
  facet normal 0 1 -0
    outer loop
      vertex 0 3.99211 -0.251163
      vertex -4 3.99211 0.251162
      vertex 0 3.99211 0.251162
    endloop
  endfacet
  facet normal 0 1 0
    outer loop
      vertex -4 3.99211 0.251162
      vertex 0 3.99211 -0.251163
      vertex -4 3.99211 -0.251163
    endloop
  endfacet
  facet normal 0 -0.535826 -0.844328
    outer loop
      vertex -4 -2.35114 -3.23607
      vertex 0 -1.92702 -3.50523
      vertex 0 -2.35114 -3.23607
    endloop
  endfacet
  facet normal -0 -0.535826 -0.844328
    outer loop
      vertex 0 -1.92702 -3.50523
      vertex -4 -2.35114 -3.23607
      vertex -4 -1.92702 -3.50523
    endloop
  endfacet
  facet normal 0 -0.309017 0.951057
    outer loop
      vertex -4 -0.99476 3.87433
      vertex 0 -1.4725 3.71911
      vertex 0 -0.99476 3.87433
    endloop
  endfacet
  facet normal 0 -0.309017 0.951057
    outer loop
      vertex 0 -1.4725 3.71911
      vertex -4 -0.99476 3.87433
      vertex -4 -1.4725 3.71911
    endloop
  endfacet
  facet normal 0 -0.968583 -0.24869
    outer loop
      vertex -1 -3.80423 -1.23607
      vertex 0 -3.92915 -0.749526
      vertex -1 -3.92915 -0.749526
    endloop
  endfacet
  facet normal 0 -0.968583 -0.24869
    outer loop
      vertex 0 -3.92915 -0.749526
      vertex -1 -3.80423 -1.23607
      vertex 0 -3.80423 -1.23607
    endloop
  endfacet
  facet normal 0 -0.72897 -0.684546
    outer loop
      vertex -4 -2.73819 -2.91588
      vertex 0 -3.08205 -2.5497
      vertex -4 -3.08205 -2.5497
    endloop
  endfacet
  facet normal 0 -0.72897 -0.684546
    outer loop
      vertex 0 -3.08205 -2.5497
      vertex -4 -2.73819 -2.91588
      vertex 0 -2.73819 -2.91588
    endloop
  endfacet
  facet normal 0 -0.809017 -0.587785
    outer loop
      vertex -4 -3.08205 -2.5497
      vertex 0 -3.37731 -2.14331
      vertex -4 -3.37731 -2.14331
    endloop
  endfacet
  facet normal 0 -0.809017 -0.587785
    outer loop
      vertex 0 -3.37731 -2.14331
      vertex -4 -3.08205 -2.5497
      vertex 0 -3.08205 -2.5497
    endloop
  endfacet
  facet normal 0 -0.876307 -0.481753
    outer loop
      vertex -1 -3.58067 -1.7734
      vertex 0 -3.61931 -1.70312
      vertex -1 -3.61931 -1.70312
    endloop
  endfacet
  facet normal -0 -0.876307 -0.481754
    outer loop
      vertex 0 -3.37731 -2.14331
      vertex -1 -3.58067 -1.7734
      vertex -4 -3.37731 -2.14331
    endloop
  endfacet
  facet normal 3.32874e-08 -0.876307 -0.481754
    outer loop
      vertex -1 -3.58067 -1.7734
      vertex 0 -3.37731 -2.14331
      vertex 0 -3.61931 -1.70312
    endloop
  endfacet
  facet normal 0 -0.876307 -0.481754
    outer loop
      vertex -4 -3.58067 -1.7734
      vertex -4 -3.37731 -2.14331
      vertex -1 -3.58067 -1.7734
    endloop
  endfacet
  facet normal 0 -0.992115 0.125333
    outer loop
      vertex -1 -3.99211 0.251162
      vertex 0 -3.92915 0.749525
      vertex -1 -3.92915 0.749525
    endloop
  endfacet
  facet normal 0 -0.992115 0.125333
    outer loop
      vertex 0 -3.92915 0.749525
      vertex -1 -3.99211 0.251162
      vertex 0 -3.99211 0.251162
    endloop
  endfacet
  facet normal 0 -0.968583 0.24869
    outer loop
      vertex -1 -3.92915 0.749525
      vertex 0 -3.80423 1.23607
      vertex -1 -3.80423 1.23607
    endloop
  endfacet
  facet normal 0 -0.968583 0.24869
    outer loop
      vertex 0 -3.80423 1.23607
      vertex -1 -3.92915 0.749525
      vertex 0 -3.92915 0.749525
    endloop
  endfacet
  facet normal 0 -0.929776 0.368126
    outer loop
      vertex -1 -3.80423 1.23607
      vertex 0 -3.61931 1.70312
      vertex -1 -3.61931 1.70312
    endloop
  endfacet
  facet normal 0 -0.929776 0.368126
    outer loop
      vertex 0 -3.61931 1.70312
      vertex -1 -3.80423 1.23607
      vertex 0 -3.80423 1.23607
    endloop
  endfacet
  facet normal 0 -0.535826 0.844328
    outer loop
      vertex -4 -1.92702 3.50523
      vertex 0 -2.35114 3.23607
      vertex 0 -1.92702 3.50523
    endloop
  endfacet
  facet normal 0 -0.535826 0.844328
    outer loop
      vertex 0 -2.35114 3.23607
      vertex -4 -1.92702 3.50523
      vertex -4 -2.35114 3.23607
    endloop
  endfacet
  facet normal 0 -0.42578 0.904827
    outer loop
      vertex -4 -1.4725 3.71911
      vertex 0 -1.92702 3.50523
      vertex 0 -1.4725 3.71911
    endloop
  endfacet
  facet normal 0 -0.42578 0.904827
    outer loop
      vertex 0 -1.92702 3.50523
      vertex -4 -1.4725 3.71911
      vertex -4 -1.92702 3.50523
    endloop
  endfacet
  facet normal 0 -0.187381 0.982287
    outer loop
      vertex -4 -0.501333 3.96846
      vertex 0 -0.99476 3.87433
      vertex 0 -0.501333 3.96846
    endloop
  endfacet
  facet normal 0 -0.187381 0.982287
    outer loop
      vertex 0 -0.99476 3.87433
      vertex -4 -0.501333 3.96846
      vertex -4 -0.99476 3.87433
    endloop
  endfacet
  facet normal 0 -0.0627917 0.998027
    outer loop
      vertex -4 0 4
      vertex 0 -0.501333 3.96846
      vertex 0 0 4
    endloop
  endfacet
  facet normal 0 -0.0627917 0.998027
    outer loop
      vertex 0 -0.501333 3.96846
      vertex -4 0 4
      vertex -4 -0.501333 3.96846
    endloop
  endfacet
  facet normal 0 -0.876307 0.481754
    outer loop
      vertex -1 -3.58067 1.7734
      vertex -4 -3.37731 2.14331
      vertex -4 -3.58067 1.7734
    endloop
  endfacet
  facet normal 0 -0.876307 0.481754
    outer loop
      vertex -4 -3.37731 2.14331
      vertex -1 -3.58067 1.7734
      vertex 0 -3.37731 2.14331
    endloop
  endfacet
  facet normal 0 -0.876307 0.481753
    outer loop
      vertex 0 -3.61931 1.70312
      vertex -1 -3.58067 1.7734
      vertex -1 -3.61931 1.70312
    endloop
  endfacet
  facet normal 3.32874e-08 -0.876307 0.481754
    outer loop
      vertex -1 -3.58067 1.7734
      vertex 0 -3.61931 1.70312
      vertex 0 -3.37731 2.14331
    endloop
  endfacet
  facet normal 0 -0.809017 0.587785
    outer loop
      vertex -4 -3.37731 2.14331
      vertex 0 -3.08205 2.5497
      vertex -4 -3.08205 2.5497
    endloop
  endfacet
  facet normal 0 -0.809017 0.587785
    outer loop
      vertex 0 -3.08205 2.5497
      vertex -4 -3.37731 2.14331
      vertex 0 -3.37731 2.14331
    endloop
  endfacet
  facet normal 0 -0.72897 0.684546
    outer loop
      vertex -4 -3.08205 2.5497
      vertex 0 -2.73819 2.91587
      vertex -4 -2.73819 2.91587
    endloop
  endfacet
  facet normal 0 -0.72897 0.684546
    outer loop
      vertex 0 -2.73819 2.91587
      vertex -4 -3.08205 2.5497
      vertex 0 -3.08205 2.5497
    endloop
  endfacet
  facet normal -0 0.309018 0.951056
    outer loop
      vertex -4 -3.76375 1.85955
      vertex -1 -4.00262 1.93717
      vertex -1 -3.76375 1.85955
    endloop
  endfacet
  facet normal 0 0.309018 0.951056
    outer loop
      vertex -1 -4.00262 1.93717
      vertex -4 -3.76375 1.85955
      vertex -4 -4.00262 1.93717
    endloop
  endfacet
  facet normal -0 0.425779 0.904827
    outer loop
      vertex -4 -3.58067 1.7734
      vertex -1 -3.76375 1.85955
      vertex -1 -3.58067 1.7734
    endloop
  endfacet
  facet normal 0 0.425779 0.904827
    outer loop
      vertex -1 -3.76375 1.85955
      vertex -4 -3.58067 1.7734
      vertex -4 -3.76375 1.85955
    endloop
  endfacet
  facet normal 0 0.18738 -0.982287
    outer loop
      vertex -4 -4.24933 -1.98423
      vertex -1 -4.00262 -1.93717
      vertex -1 -4.24933 -1.98423
    endloop
  endfacet
  facet normal 0 0.18738 -0.982287
    outer loop
      vertex -1 -4.00262 -1.93717
      vertex -4 -4.24933 -1.98423
      vertex -4 -4.00262 -1.93717
    endloop
  endfacet
  facet normal -0 0.18738 0.982287
    outer loop
      vertex -4 -4.00262 1.93717
      vertex -1 -4.24933 1.98423
      vertex -1 -4.00262 1.93717
    endloop
  endfacet
  facet normal 0 0.18738 0.982287
    outer loop
      vertex -1 -4.24933 1.98423
      vertex -4 -4.00262 1.93717
      vertex -4 -4.24933 1.98423
    endloop
  endfacet
  facet normal 0 -0.72897 0.684545
    outer loop
      vertex -4 -6.04103 1.27485
      vertex -1 -5.86909 1.45794
      vertex -4 -5.86909 1.45794
    endloop
  endfacet
  facet normal 0 -0.72897 0.684545
    outer loop
      vertex -1 -5.86909 1.45794
      vertex -4 -6.04103 1.27485
      vertex -1 -6.04103 1.27485
    endloop
  endfacet
  facet normal 1 0 0
    outer loop
      vertex -1 -3.76375 1.85955
      vertex -1 -3.61931 1.70312
      vertex -1 -3.58067 1.7734
    endloop
  endfacet
  facet normal 1 0 0
    outer loop
      vertex -1 -3.76375 1.85955
      vertex -1 -3.80423 1.23607
      vertex -1 -3.61931 1.70312
    endloop
  endfacet
  facet normal 1 0 0
    outer loop
      vertex -1 -4.00262 1.93717
      vertex -1 -3.80423 1.23607
      vertex -1 -3.76375 1.85955
    endloop
  endfacet
  facet normal 1 -0 0
    outer loop
      vertex -1 -4.75067 1.98423
      vertex -1 -3.80423 1.23607
      vertex -1 -4.5 2
    endloop
  endfacet
  facet normal 1 0 0
    outer loop
      vertex -1 -4.5 2
      vertex -1 -3.80423 1.23607
      vertex -1 -4.24933 1.98423
    endloop
  endfacet
  facet normal 1 0 0
    outer loop
      vertex -1 -4.24933 1.98423
      vertex -1 -3.80423 1.23607
      vertex -1 -4.00262 1.93717
    endloop
  endfacet
  facet normal 1 0 0
    outer loop
      vertex -1 -3.61931 -1.70312
      vertex -1 -3.76375 -1.85955
      vertex -1 -3.58067 -1.7734
    endloop
  endfacet
  facet normal 1 0 0
    outer loop
      vertex -1 -3.80423 -1.23607
      vertex -1 -3.76375 -1.85955
      vertex -1 -3.61931 -1.70312
    endloop
  endfacet
  facet normal 1 0 0
    outer loop
      vertex -1 -4.75067 -1.98423
      vertex -1 -3.80423 -1.23607
      vertex -1 -3.92915 -0.749526
    endloop
  endfacet
  facet normal 1 0 0
    outer loop
      vertex -1 -3.80423 -1.23607
      vertex -1 -4.00262 -1.93717
      vertex -1 -3.76375 -1.85955
    endloop
  endfacet
  facet normal 1 0 0
    outer loop
      vertex -1 -5.86909 -1.45794
      vertex -1 -3.92915 -0.749526
      vertex -1 -3.99211 -0.251163
    endloop
  endfacet
  facet normal 1 0 0
    outer loop
      vertex -1 -3.80423 1.23607
      vertex -1 -4.75067 1.98423
      vertex -1 -3.92915 0.749525
    endloop
  endfacet
  facet normal 1 -0 0
    outer loop
      vertex -1 -4.99738 1.93717
      vertex -1 -3.92915 0.749525
      vertex -1 -4.75067 1.98423
    endloop
  endfacet
  facet normal 1 0 0
    outer loop
      vertex -1 -3.80423 -1.23607
      vertex -1 -4.24933 -1.98423
      vertex -1 -4.00262 -1.93717
    endloop
  endfacet
  facet normal 1 -0 0
    outer loop
      vertex -1 -5.23625 1.85955
      vertex -1 -3.92915 0.749525
      vertex -1 -4.99738 1.93717
    endloop
  endfacet
  facet normal 1 0 0
    outer loop
      vertex -1 -3.80423 -1.23607
      vertex -1 -4.5 -2
      vertex -1 -4.24933 -1.98423
    endloop
  endfacet
  facet normal 1 -0 0
    outer loop
      vertex -1 -5.46351 1.75261
      vertex -1 -3.92915 0.749525
      vertex -1 -5.23625 1.85955
    endloop
  endfacet
  facet normal 1 0 0
    outer loop
      vertex -1 -3.80423 -1.23607
      vertex -1 -4.75067 -1.98423
      vertex -1 -4.5 -2
    endloop
  endfacet
  facet normal 1 -0 0
    outer loop
      vertex -1 -5.67557 1.61803
      vertex -1 -3.92915 0.749525
      vertex -1 -5.46351 1.75261
    endloop
  endfacet
  facet normal 1 0 0
    outer loop
      vertex -1 -3.92915 -0.749526
      vertex -1 -4.99738 -1.93717
      vertex -1 -4.75067 -1.98423
    endloop
  endfacet
  facet normal 1 -0 0
    outer loop
      vertex -1 -5.86909 1.45794
      vertex -1 -3.92915 0.749525
      vertex -1 -5.67557 1.61803
    endloop
  endfacet
  facet normal 1 0 0
    outer loop
      vertex -1 -3.92915 -0.749526
      vertex -1 -5.23625 -1.85955
      vertex -1 -4.99738 -1.93717
    endloop
  endfacet
  facet normal 1 0 0
    outer loop
      vertex -1 -3.92915 0.749525
      vertex -1 -5.86909 1.45794
      vertex -1 -3.99211 0.251162
    endloop
  endfacet
  facet normal 1 0 0
    outer loop
      vertex -1 -3.92915 -0.749526
      vertex -1 -5.46351 -1.75261
      vertex -1 -5.23625 -1.85955
    endloop
  endfacet
  facet normal 1 -0 0
    outer loop
      vertex -1 -6.04103 1.27485
      vertex -1 -3.99211 0.251162
      vertex -1 -5.86909 1.45794
    endloop
  endfacet
  facet normal 1 0 0
    outer loop
      vertex -1 -3.92915 -0.749526
      vertex -1 -5.67557 -1.61803
      vertex -1 -5.46351 -1.75261
    endloop
  endfacet
  facet normal 1 -0 0
    outer loop
      vertex -1 -6.18866 1.07165
      vertex -1 -3.99211 0.251162
      vertex -1 -6.04103 1.27485
    endloop
  endfacet
  facet normal 1 0 0
    outer loop
      vertex -1 -3.92915 -0.749526
      vertex -1 -5.86909 -1.45794
      vertex -1 -5.67557 -1.61803
    endloop
  endfacet
  facet normal 1 -0 0
    outer loop
      vertex -1 -6.30965 0.851558
      vertex -1 -3.99211 0.251162
      vertex -1 -6.18866 1.07165
    endloop
  endfacet
  facet normal 1 0 0
    outer loop
      vertex -1 -3.99211 -0.251163
      vertex -1 -6.04103 -1.27485
      vertex -1 -5.86909 -1.45794
    endloop
  endfacet
  facet normal 1 -0 0
    outer loop
      vertex -1 -6.40211 0.618033
      vertex -1 -3.99211 0.251162
      vertex -1 -6.30965 0.851558
    endloop
  endfacet
  facet normal 1 0 0
    outer loop
      vertex -1 -3.99211 -0.251163
      vertex -1 -6.18866 -1.07165
      vertex -1 -6.04103 -1.27485
    endloop
  endfacet
  facet normal 1 -0 0
    outer loop
      vertex -1 -6.46457 0.374763
      vertex -1 -3.99211 0.251162
      vertex -1 -6.40211 0.618033
    endloop
  endfacet
  facet normal 1 0 0
    outer loop
      vertex -1 -3.99211 -0.251163
      vertex -1 -6.30965 -0.851559
      vertex -1 -6.18866 -1.07165
    endloop
  endfacet
  facet normal 1 0 0
    outer loop
      vertex -1 -6.49605 0.125581
      vertex -1 -3.99211 0.251162
      vertex -1 -6.46457 0.374763
    endloop
  endfacet
  facet normal 1 0 0
    outer loop
      vertex -1 -3.99211 -0.251163
      vertex -1 -6.40211 -0.618034
      vertex -1 -6.30965 -0.851559
    endloop
  endfacet
  facet normal 1 0 0
    outer loop
      vertex -1 -3.99211 0.251162
      vertex -1 -6.49605 0.125581
      vertex -1 -3.99211 -0.251163
    endloop
  endfacet
  facet normal 1 0 0
    outer loop
      vertex -1 -3.99211 -0.251163
      vertex -1 -6.46457 -0.374763
      vertex -1 -6.40211 -0.618034
    endloop
  endfacet
  facet normal 1 -0 0
    outer loop
      vertex -1 -6.49605 -0.125582
      vertex -1 -3.99211 -0.251163
      vertex -1 -6.49605 0.125581
    endloop
  endfacet
  facet normal 1 0 0
    outer loop
      vertex -1 -3.99211 -0.251163
      vertex -1 -6.49605 -0.125582
      vertex -1 -6.46457 -0.374763
    endloop
  endfacet
  facet normal 0 -0.876307 -0.481753
    outer loop
      vertex -4 -6.18866 -1.07165
      vertex -1 -6.30965 -0.851559
      vertex -4 -6.30965 -0.851559
    endloop
  endfacet
  facet normal 0 -0.876307 -0.481753
    outer loop
      vertex -1 -6.30965 -0.851559
      vertex -4 -6.18866 -1.07165
      vertex -1 -6.18866 -1.07165
    endloop
  endfacet
  facet normal 0 0.309018 -0.951056
    outer loop
      vertex -4 -4.00262 -1.93717
      vertex -1 -3.76375 -1.85955
      vertex -1 -4.00262 -1.93717
    endloop
  endfacet
  facet normal 0 0.309018 -0.951056
    outer loop
      vertex -1 -3.76375 -1.85955
      vertex -4 -4.00262 -1.93717
      vertex -4 -3.76375 -1.85955
    endloop
  endfacet
  facet normal -0 0.062792 0.998027
    outer loop
      vertex -4 -4.24933 1.98423
      vertex -1 -4.5 2
      vertex -1 -4.24933 1.98423
    endloop
  endfacet
  facet normal 0 0.062792 0.998027
    outer loop
      vertex -1 -4.5 2
      vertex -4 -4.24933 1.98423
      vertex -4 -4.5 2
    endloop
  endfacet
  facet normal 0 0.0627882 -0.998027
    outer loop
      vertex -4 -4.5 -2
      vertex -1 -4.24933 -1.98423
      vertex -1 -4.5 -2
    endloop
  endfacet
  facet normal 0 0.0627882 -0.998027
    outer loop
      vertex -1 -4.24933 -1.98423
      vertex -4 -4.5 -2
      vertex -4 -4.24933 -1.98423
    endloop
  endfacet
  facet normal 0 -0.0627879 -0.998027
    outer loop
      vertex -4 -4.75067 -1.98423
      vertex -1 -4.5 -2
      vertex -1 -4.75067 -1.98423
    endloop
  endfacet
  facet normal -0 -0.0627879 -0.998027
    outer loop
      vertex -1 -4.5 -2
      vertex -4 -4.75067 -1.98423
      vertex -4 -4.5 -2
    endloop
  endfacet
  facet normal 0 -0.18738 -0.982287
    outer loop
      vertex -4 -4.99738 -1.93717
      vertex -1 -4.75067 -1.98423
      vertex -1 -4.99738 -1.93717
    endloop
  endfacet
  facet normal -0 -0.18738 -0.982287
    outer loop
      vertex -1 -4.75067 -1.98423
      vertex -4 -4.99738 -1.93717
      vertex -4 -4.75067 -1.98423
    endloop
  endfacet
  facet normal 0 -0.637423 -0.770514
    outer loop
      vertex -4 -5.86909 -1.45794
      vertex -1 -5.67557 -1.61803
      vertex -1 -5.86909 -1.45794
    endloop
  endfacet
  facet normal -0 -0.637423 -0.770514
    outer loop
      vertex -1 -5.67557 -1.61803
      vertex -4 -5.86909 -1.45794
      vertex -4 -5.67557 -1.61803
    endloop
  endfacet
  facet normal 0 -1 0
    outer loop
      vertex -4 -6.49605 -0.125582
      vertex -1 -6.49605 0.125581
      vertex -4 -6.49605 0.125581
    endloop
  endfacet
  facet normal 0 -1 -0
    outer loop
      vertex -1 -6.49605 0.125581
      vertex -4 -6.49605 -0.125582
      vertex -1 -6.49605 -0.125582
    endloop
  endfacet
  facet normal 0 -0.809017 0.587785
    outer loop
      vertex -4 -6.18866 1.07165
      vertex -1 -6.04103 1.27485
      vertex -4 -6.04103 1.27485
    endloop
  endfacet
  facet normal 0 -0.809017 0.587785
    outer loop
      vertex -1 -6.04103 1.27485
      vertex -4 -6.18866 1.07165
      vertex -1 -6.18866 1.07165
    endloop
  endfacet
  facet normal 0 -0.309018 0.951056
    outer loop
      vertex -4 -4.99738 1.93717
      vertex -1 -5.23625 1.85955
      vertex -1 -4.99738 1.93717
    endloop
  endfacet
  facet normal 0 -0.309018 0.951056
    outer loop
      vertex -1 -5.23625 1.85955
      vertex -4 -4.99738 1.93717
      vertex -4 -5.23625 1.85955
    endloop
  endfacet
  facet normal 0 -0.992115 -0.125333
    outer loop
      vertex -4 -6.46457 -0.374763
      vertex -1 -6.49605 -0.125582
      vertex -4 -6.49605 -0.125582
    endloop
  endfacet
  facet normal 0 -0.992115 -0.125333
    outer loop
      vertex -1 -6.49605 -0.125582
      vertex -4 -6.46457 -0.374763
      vertex -1 -6.46457 -0.374763
    endloop
  endfacet
  facet normal 0 -0.72897 -0.684545
    outer loop
      vertex -4 -5.86909 -1.45794
      vertex -1 -6.04103 -1.27485
      vertex -4 -6.04103 -1.27485
    endloop
  endfacet
  facet normal 0 -0.72897 -0.684545
    outer loop
      vertex -1 -6.04103 -1.27485
      vertex -4 -5.86909 -1.45794
      vertex -1 -5.86909 -1.45794
    endloop
  endfacet
  facet normal 0 0.425779 -0.904827
    outer loop
      vertex -4 -3.76375 -1.85955
      vertex -1 -3.58067 -1.7734
      vertex -1 -3.76375 -1.85955
    endloop
  endfacet
  facet normal 0 0.425779 -0.904827
    outer loop
      vertex -1 -3.58067 -1.7734
      vertex -4 -3.76375 -1.85955
      vertex -4 -3.58067 -1.7734
    endloop
  endfacet
  facet normal 0 -0.425779 -0.904827
    outer loop
      vertex -4 -5.46351 -1.75261
      vertex -1 -5.23625 -1.85955
      vertex -1 -5.46351 -1.75261
    endloop
  endfacet
  facet normal -0 -0.425779 -0.904827
    outer loop
      vertex -1 -5.23625 -1.85955
      vertex -4 -5.46351 -1.75261
      vertex -4 -5.23625 -1.85955
    endloop
  endfacet
  facet normal 0 -0.876307 0.481753
    outer loop
      vertex -4 -6.30965 0.851558
      vertex -1 -6.18866 1.07165
      vertex -4 -6.18866 1.07165
    endloop
  endfacet
  facet normal 0 -0.876307 0.481753
    outer loop
      vertex -1 -6.18866 1.07165
      vertex -4 -6.30965 0.851558
      vertex -1 -6.30965 0.851558
    endloop
  endfacet
  facet normal 0 -0.425779 0.904827
    outer loop
      vertex -4 -5.23625 1.85955
      vertex -1 -5.46351 1.75261
      vertex -1 -5.23625 1.85955
    endloop
  endfacet
  facet normal 0 -0.425779 0.904827
    outer loop
      vertex -1 -5.46351 1.75261
      vertex -4 -5.23625 1.85955
      vertex -4 -5.46351 1.75261
    endloop
  endfacet
  facet normal 0 -0.637423 0.770514
    outer loop
      vertex -4 -5.67557 1.61803
      vertex -1 -5.86909 1.45794
      vertex -1 -5.67557 1.61803
    endloop
  endfacet
  facet normal 0 -0.637423 0.770514
    outer loop
      vertex -1 -5.86909 1.45794
      vertex -4 -5.67557 1.61803
      vertex -4 -5.86909 1.45794
    endloop
  endfacet
  facet normal 0 -0.929775 -0.368128
    outer loop
      vertex -4 -6.30965 -0.851559
      vertex -1 -6.40211 -0.618034
      vertex -4 -6.40211 -0.618034
    endloop
  endfacet
  facet normal 0 -0.929775 -0.368128
    outer loop
      vertex -1 -6.40211 -0.618034
      vertex -4 -6.30965 -0.851559
      vertex -1 -6.30965 -0.851559
    endloop
  endfacet
  facet normal 0 -0.968584 -0.248688
    outer loop
      vertex -4 -6.40211 -0.618034
      vertex -1 -6.46457 -0.374763
      vertex -4 -6.46457 -0.374763
    endloop
  endfacet
  facet normal 0 -0.968584 -0.248688
    outer loop
      vertex -1 -6.46457 -0.374763
      vertex -4 -6.40211 -0.618034
      vertex -1 -6.40211 -0.618034
    endloop
  endfacet
  facet normal 0 -0.809017 -0.587785
    outer loop
      vertex -4 -6.04103 -1.27485
      vertex -1 -6.18866 -1.07165
      vertex -4 -6.18866 -1.07165
    endloop
  endfacet
  facet normal 0 -0.809017 -0.587785
    outer loop
      vertex -1 -6.18866 -1.07165
      vertex -4 -6.04103 -1.27485
      vertex -1 -6.04103 -1.27485
    endloop
  endfacet
  facet normal 0 -0.535826 -0.844328
    outer loop
      vertex -4 -5.67557 -1.61803
      vertex -1 -5.46351 -1.75261
      vertex -1 -5.67557 -1.61803
    endloop
  endfacet
  facet normal -0 -0.535826 -0.844328
    outer loop
      vertex -1 -5.46351 -1.75261
      vertex -4 -5.67557 -1.61803
      vertex -4 -5.46351 -1.75261
    endloop
  endfacet
  facet normal 0 -0.309018 -0.951056
    outer loop
      vertex -4 -5.23625 -1.85955
      vertex -1 -4.99738 -1.93717
      vertex -1 -5.23625 -1.85955
    endloop
  endfacet
  facet normal -0 -0.309018 -0.951056
    outer loop
      vertex -1 -4.99738 -1.93717
      vertex -4 -5.23625 -1.85955
      vertex -4 -4.99738 -1.93717
    endloop
  endfacet
  facet normal 0 -0.992115 0.125333
    outer loop
      vertex -4 -6.49605 0.125581
      vertex -1 -6.46457 0.374763
      vertex -4 -6.46457 0.374763
    endloop
  endfacet
  facet normal 0 -0.992115 0.125333
    outer loop
      vertex -1 -6.46457 0.374763
      vertex -4 -6.49605 0.125581
      vertex -1 -6.49605 0.125581
    endloop
  endfacet
  facet normal 0 -0.929775 0.368128
    outer loop
      vertex -4 -6.40211 0.618033
      vertex -1 -6.30965 0.851558
      vertex -4 -6.30965 0.851558
    endloop
  endfacet
  facet normal 0 -0.929775 0.368128
    outer loop
      vertex -1 -6.30965 0.851558
      vertex -4 -6.40211 0.618033
      vertex -1 -6.40211 0.618033
    endloop
  endfacet
  facet normal 0 -0.18738 0.982287
    outer loop
      vertex -4 -4.75067 1.98423
      vertex -1 -4.99738 1.93717
      vertex -1 -4.75067 1.98423
    endloop
  endfacet
  facet normal 0 -0.18738 0.982287
    outer loop
      vertex -1 -4.99738 1.93717
      vertex -4 -4.75067 1.98423
      vertex -4 -4.99738 1.93717
    endloop
  endfacet
  facet normal 0 -0.0627917 0.998027
    outer loop
      vertex -4 -4.5 2
      vertex -1 -4.75067 1.98423
      vertex -1 -4.5 2
    endloop
  endfacet
  facet normal 0 -0.0627917 0.998027
    outer loop
      vertex -1 -4.75067 1.98423
      vertex -4 -4.5 2
      vertex -4 -4.75067 1.98423
    endloop
  endfacet
  facet normal 0 -0.535826 0.844328
    outer loop
      vertex -4 -5.46351 1.75261
      vertex -1 -5.67557 1.61803
      vertex -1 -5.46351 1.75261
    endloop
  endfacet
  facet normal 0 -0.535826 0.844328
    outer loop
      vertex -1 -5.67557 1.61803
      vertex -4 -5.46351 1.75261
      vertex -4 -5.67557 1.61803
    endloop
  endfacet
  facet normal 0 -0.968584 0.248688
    outer loop
      vertex -4 -6.46457 0.374763
      vertex -1 -6.40211 0.618033
      vertex -4 -6.40211 0.618033
    endloop
  endfacet
  facet normal 0 -0.968584 0.248688
    outer loop
      vertex -1 -6.40211 0.618033
      vertex -4 -6.46457 0.374763
      vertex -1 -6.46457 0.374763
    endloop
  endfacet
  facet normal -1 0 0
    outer loop
      vertex -22.75 -15 -4
      vertex -22.75 4 4
      vertex -22.75 4 -4
    endloop
  endfacet
  facet normal -1 -0 0
    outer loop
      vertex -22.75 4 4
      vertex -22.75 -15 -4
      vertex -22.75 -15 4
    endloop
  endfacet
  facet normal 0 0.0627881 -0.998027
    outer loop
      vertex 0 0 -1.75
      vertex 3 0.219333 -1.7362
      vertex 3 0 -1.75
    endloop
  endfacet
  facet normal 0 0.0627881 -0.998027
    outer loop
      vertex 3 0.219333 -1.7362
      vertex 0 0 -1.75
      vertex 0 0.219333 -1.7362
    endloop
  endfacet
  facet normal -0 0.0627924 0.998027
    outer loop
      vertex 0 0.219333 1.7362
      vertex 3 0 1.75
      vertex 3 0.219333 1.7362
    endloop
  endfacet
  facet normal 0 0.0627924 0.998027
    outer loop
      vertex 3 0 1.75
      vertex 0 0.219333 1.7362
      vertex 0 0 1.75
    endloop
  endfacet
  facet normal 0 0.72897 0.684546
    outer loop
      vertex 3 1.3484 1.11549
      vertex 0 1.19796 1.27569
      vertex 3 1.19796 1.27569
    endloop
  endfacet
  facet normal 0 0.72897 0.684546
    outer loop
      vertex 0 1.19796 1.27569
      vertex 3 1.3484 1.11549
      vertex 0 1.3484 1.11549
    endloop
  endfacet
  facet normal 0 0.929776 0.368126
    outer loop
      vertex 3 1.66435 0.540779
      vertex 0 1.58345 0.745113
      vertex 3 1.58345 0.745113
    endloop
  endfacet
  facet normal 0 0.929776 0.368126
    outer loop
      vertex 0 1.58345 0.745113
      vertex 3 1.66435 0.540779
      vertex 0 1.66435 0.540779
    endloop
  endfacet
  facet normal 0 0.929776 -0.368126
    outer loop
      vertex 3 1.58345 -0.745114
      vertex 0 1.66435 -0.54078
      vertex 3 1.66435 -0.54078
    endloop
  endfacet
  facet normal 0 0.929776 -0.368126
    outer loop
      vertex 0 1.66435 -0.54078
      vertex 3 1.58345 -0.745114
      vertex 0 1.58345 -0.745114
    endloop
  endfacet
  facet normal 0 0.809017 -0.587786
    outer loop
      vertex 3 1.3484 -1.11549
      vertex 0 1.47757 -0.937697
      vertex 3 1.47757 -0.937697
    endloop
  endfacet
  facet normal 0 0.809017 -0.587786
    outer loop
      vertex 0 1.47757 -0.937697
      vertex 3 1.3484 -1.11549
      vertex 0 1.3484 -1.11549
    endloop
  endfacet
  facet normal -0 0.535826 0.844328
    outer loop
      vertex 0 1.02862 1.41578
      vertex 3 0.843068 1.53354
      vertex 3 1.02862 1.41578
    endloop
  endfacet
  facet normal 0 0.535826 0.844328
    outer loop
      vertex 3 0.843068 1.53354
      vertex 0 1.02862 1.41578
      vertex 0 0.843068 1.53354
    endloop
  endfacet
  facet normal -0 0.637422 0.770514
    outer loop
      vertex 0 1.19796 1.27569
      vertex 3 1.02862 1.41578
      vertex 3 1.19796 1.27569
    endloop
  endfacet
  facet normal 0 0.637422 0.770514
    outer loop
      vertex 3 1.02862 1.41578
      vertex 0 1.19796 1.27569
      vertex 0 1.02862 1.41578
    endloop
  endfacet
  facet normal -0 0.187383 0.982287
    outer loop
      vertex 0 0.435206 1.69502
      vertex 3 0.219333 1.7362
      vertex 3 0.435206 1.69502
    endloop
  endfacet
  facet normal 0 0.187383 0.982287
    outer loop
      vertex 3 0.219333 1.7362
      vertex 0 0.435206 1.69502
      vertex 0 0.219333 1.7362
    endloop
  endfacet
  facet normal 0 0.876307 0.481752
    outer loop
      vertex 3 1.58345 0.745113
      vertex 0 1.47757 0.937696
      vertex 3 1.47757 0.937696
    endloop
  endfacet
  facet normal 0 0.876307 0.481752
    outer loop
      vertex 0 1.47757 0.937696
      vertex 3 1.58345 0.745113
      vertex 0 1.58345 0.745113
    endloop
  endfacet
  facet normal 0 0.992114 0.125337
    outer loop
      vertex 3 1.74655 0.109883
      vertex 0 1.719 0.327917
      vertex 3 1.719 0.327917
    endloop
  endfacet
  facet normal 0 0.992114 0.125337
    outer loop
      vertex 0 1.719 0.327917
      vertex 3 1.74655 0.109883
      vertex 0 1.74655 0.109883
    endloop
  endfacet
  facet normal 0 -0.992114 -0.125337
    outer loop
      vertex 0 -1.719 -0.327918
      vertex 3 -1.74655 -0.109884
      vertex 0 -1.74655 -0.109884
    endloop
  endfacet
  facet normal 0 -0.992114 -0.125337
    outer loop
      vertex 3 -1.74655 -0.109884
      vertex 0 -1.719 -0.327918
      vertex 3 -1.719 -0.327918
    endloop
  endfacet
  facet normal 0 0.187383 -0.982287
    outer loop
      vertex 0 0.219333 -1.7362
      vertex 3 0.435206 -1.69502
      vertex 3 0.219333 -1.7362
    endloop
  endfacet
  facet normal 0 0.187383 -0.982287
    outer loop
      vertex 3 0.435206 -1.69502
      vertex 0 0.219333 -1.7362
      vertex 0 0.435206 -1.69502
    endloop
  endfacet
  facet normal 0 0.425782 -0.904826
    outer loop
      vertex 0 0.644217 -1.62711
      vertex 3 0.843068 -1.53354
      vertex 3 0.644217 -1.62711
    endloop
  endfacet
  facet normal 0 0.425782 -0.904826
    outer loop
      vertex 3 0.843068 -1.53354
      vertex 0 0.644217 -1.62711
      vertex 0 0.843068 -1.53354
    endloop
  endfacet
  facet normal 0 0.72897 -0.684546
    outer loop
      vertex 3 1.19796 -1.2757
      vertex 0 1.3484 -1.11549
      vertex 3 1.3484 -1.11549
    endloop
  endfacet
  facet normal 0 0.72897 -0.684546
    outer loop
      vertex 0 1.3484 -1.11549
      vertex 3 1.19796 -1.2757
      vertex 0 1.19796 -1.2757
    endloop
  endfacet
  facet normal 0 0.535826 -0.844328
    outer loop
      vertex 0 0.843068 -1.53354
      vertex 3 1.02862 -1.41578
      vertex 3 0.843068 -1.53354
    endloop
  endfacet
  facet normal 0 0.535826 -0.844328
    outer loop
      vertex 3 1.02862 -1.41578
      vertex 0 0.843068 -1.53354
      vertex 0 1.02862 -1.41578
    endloop
  endfacet
  facet normal 0 0.968584 -0.248688
    outer loop
      vertex 3 1.66435 -0.54078
      vertex 0 1.719 -0.327918
      vertex 3 1.719 -0.327918
    endloop
  endfacet
  facet normal 0 0.968584 -0.248688
    outer loop
      vertex 0 1.719 -0.327918
      vertex 3 1.66435 -0.54078
      vertex 0 1.66435 -0.54078
    endloop
  endfacet
  facet normal 0 0.992114 -0.125337
    outer loop
      vertex 3 1.719 -0.327918
      vertex 0 1.74655 -0.109884
      vertex 3 1.74655 -0.109884
    endloop
  endfacet
  facet normal 0 0.992114 -0.125337
    outer loop
      vertex 0 1.74655 -0.109884
      vertex 3 1.719 -0.327918
      vertex 0 1.719 -0.327918
    endloop
  endfacet
  facet normal 0 1 -0
    outer loop
      vertex 3 1.74655 -0.109884
      vertex 0 1.74655 0.109883
      vertex 3 1.74655 0.109883
    endloop
  endfacet
  facet normal 0 1 0
    outer loop
      vertex 0 1.74655 0.109883
      vertex 3 1.74655 -0.109884
      vertex 0 1.74655 -0.109884
    endloop
  endfacet
  facet normal 0 0.876307 -0.481752
    outer loop
      vertex 3 1.47757 -0.937697
      vertex 0 1.58345 -0.745114
      vertex 3 1.58345 -0.745114
    endloop
  endfacet
  facet normal 0 0.876307 -0.481752
    outer loop
      vertex 0 1.58345 -0.745114
      vertex 3 1.47757 -0.937697
      vertex 0 1.47757 -0.937697
    endloop
  endfacet
  facet normal -0 0.425782 0.904826
    outer loop
      vertex 0 0.843068 1.53354
      vertex 3 0.644217 1.62711
      vertex 3 0.843068 1.53354
    endloop
  endfacet
  facet normal 0 0.425782 0.904826
    outer loop
      vertex 3 0.644217 1.62711
      vertex 0 0.843068 1.53354
      vertex 0 0.644217 1.62711
    endloop
  endfacet
  facet normal -0 0.309014 0.951057
    outer loop
      vertex 0 0.644217 1.62711
      vertex 3 0.435206 1.69502
      vertex 3 0.644217 1.62711
    endloop
  endfacet
  facet normal 0 0.309014 0.951057
    outer loop
      vertex 3 0.435206 1.69502
      vertex 0 0.644217 1.62711
      vertex 0 0.435206 1.69502
    endloop
  endfacet
  facet normal 0 0.968584 0.248688
    outer loop
      vertex 3 1.719 0.327917
      vertex 0 1.66435 0.540779
      vertex 3 1.66435 0.540779
    endloop
  endfacet
  facet normal 0 0.968584 0.248688
    outer loop
      vertex 0 1.66435 0.540779
      vertex 3 1.719 0.327917
      vertex 0 1.719 0.327917
    endloop
  endfacet
  facet normal 0 -0.309014 0.951057
    outer loop
      vertex 0 -0.435207 1.69502
      vertex 3 -0.644218 1.62711
      vertex 3 -0.435207 1.69502
    endloop
  endfacet
  facet normal 0 -0.309014 0.951057
    outer loop
      vertex 3 -0.644218 1.62711
      vertex 0 -0.435207 1.69502
      vertex 0 -0.644218 1.62711
    endloop
  endfacet
  facet normal 1 0 0
    outer loop
      vertex 3 1.719 0.327917
      vertex 3 1.74655 -0.109884
      vertex 3 1.74655 0.109883
    endloop
  endfacet
  facet normal 1 0 0
    outer loop
      vertex 3 1.719 0.327917
      vertex 3 1.719 -0.327918
      vertex 3 1.74655 -0.109884
    endloop
  endfacet
  facet normal 1 0 0
    outer loop
      vertex 3 1.66435 0.540779
      vertex 3 1.719 -0.327918
      vertex 3 1.719 0.327917
    endloop
  endfacet
  facet normal 1 0 0
    outer loop
      vertex 3 1.66435 0.540779
      vertex 3 1.66435 -0.54078
      vertex 3 1.719 -0.327918
    endloop
  endfacet
  facet normal 1 0 0
    outer loop
      vertex 3 1.58345 0.745113
      vertex 3 1.66435 -0.54078
      vertex 3 1.66435 0.540779
    endloop
  endfacet
  facet normal 1 0 0
    outer loop
      vertex 3 1.58345 0.745113
      vertex 3 1.58345 -0.745114
      vertex 3 1.66435 -0.54078
    endloop
  endfacet
  facet normal 1 0 0
    outer loop
      vertex 3 1.47757 0.937696
      vertex 3 1.58345 -0.745114
      vertex 3 1.58345 0.745113
    endloop
  endfacet
  facet normal 1 0 0
    outer loop
      vertex 3 1.47757 0.937696
      vertex 3 1.47757 -0.937697
      vertex 3 1.58345 -0.745114
    endloop
  endfacet
  facet normal 1 0 0
    outer loop
      vertex 3 1.3484 1.11549
      vertex 3 1.47757 -0.937697
      vertex 3 1.47757 0.937696
    endloop
  endfacet
  facet normal 1 0 0
    outer loop
      vertex 3 1.3484 1.11549
      vertex 3 1.3484 -1.11549
      vertex 3 1.47757 -0.937697
    endloop
  endfacet
  facet normal 1 0 0
    outer loop
      vertex 3 1.19796 1.27569
      vertex 3 1.3484 -1.11549
      vertex 3 1.3484 1.11549
    endloop
  endfacet
  facet normal 1 0 0
    outer loop
      vertex 3 1.19796 1.27569
      vertex 3 1.19796 -1.2757
      vertex 3 1.3484 -1.11549
    endloop
  endfacet
  facet normal 1 0 0
    outer loop
      vertex 3 1.02862 1.41578
      vertex 3 1.19796 -1.2757
      vertex 3 1.19796 1.27569
    endloop
  endfacet
  facet normal 1 0 0
    outer loop
      vertex 3 1.02862 1.41578
      vertex 3 1.02862 -1.41578
      vertex 3 1.19796 -1.2757
    endloop
  endfacet
  facet normal 1 0 0
    outer loop
      vertex 3 0.843068 1.53354
      vertex 3 1.02862 -1.41578
      vertex 3 1.02862 1.41578
    endloop
  endfacet
  facet normal 1 0 0
    outer loop
      vertex 3 0.843068 1.53354
      vertex 3 0.843068 -1.53354
      vertex 3 1.02862 -1.41578
    endloop
  endfacet
  facet normal 1 0 0
    outer loop
      vertex 3 0.644217 1.62711
      vertex 3 0.843068 -1.53354
      vertex 3 0.843068 1.53354
    endloop
  endfacet
  facet normal 1 0 0
    outer loop
      vertex 3 0.644217 1.62711
      vertex 3 0.644217 -1.62711
      vertex 3 0.843068 -1.53354
    endloop
  endfacet
  facet normal 1 0 0
    outer loop
      vertex 3 0.435206 1.69502
      vertex 3 0.644217 -1.62711
      vertex 3 0.644217 1.62711
    endloop
  endfacet
  facet normal 1 0 0
    outer loop
      vertex 3 0.435206 1.69502
      vertex 3 0.435206 -1.69502
      vertex 3 0.644217 -1.62711
    endloop
  endfacet
  facet normal 1 0 0
    outer loop
      vertex 3 0.219333 1.7362
      vertex 3 0.435206 -1.69502
      vertex 3 0.435206 1.69502
    endloop
  endfacet
  facet normal 1 0 0
    outer loop
      vertex 3 0.219333 1.7362
      vertex 3 0.219333 -1.7362
      vertex 3 0.435206 -1.69502
    endloop
  endfacet
  facet normal 1 0 0
    outer loop
      vertex 3 0 1.75
      vertex 3 0.219333 -1.7362
      vertex 3 0.219333 1.7362
    endloop
  endfacet
  facet normal 1 0 0
    outer loop
      vertex 3 0 1.75
      vertex 3 0 -1.75
      vertex 3 0.219333 -1.7362
    endloop
  endfacet
  facet normal 1 -0 0
    outer loop
      vertex 3 -0.219334 1.7362
      vertex 3 0 -1.75
      vertex 3 0 1.75
    endloop
  endfacet
  facet normal 1 0 0
    outer loop
      vertex 3 -0.219334 1.7362
      vertex 3 -0.219334 -1.7362
      vertex 3 0 -1.75
    endloop
  endfacet
  facet normal 1 -0 0
    outer loop
      vertex 3 -0.435207 1.69502
      vertex 3 -0.219334 -1.7362
      vertex 3 -0.219334 1.7362
    endloop
  endfacet
  facet normal 1 0 0
    outer loop
      vertex 3 -0.435207 1.69502
      vertex 3 -0.435207 -1.69502
      vertex 3 -0.219334 -1.7362
    endloop
  endfacet
  facet normal 1 -0 0
    outer loop
      vertex 3 -0.644218 1.62711
      vertex 3 -0.435207 -1.69502
      vertex 3 -0.435207 1.69502
    endloop
  endfacet
  facet normal 1 0 0
    outer loop
      vertex 3 -0.644218 1.62711
      vertex 3 -0.644218 -1.62711
      vertex 3 -0.435207 -1.69502
    endloop
  endfacet
  facet normal 1 -0 0
    outer loop
      vertex 3 -0.843069 1.53354
      vertex 3 -0.644218 -1.62711
      vertex 3 -0.644218 1.62711
    endloop
  endfacet
  facet normal 1 0 0
    outer loop
      vertex 3 -0.843069 1.53354
      vertex 3 -0.843069 -1.53354
      vertex 3 -0.644218 -1.62711
    endloop
  endfacet
  facet normal 1 -0 0
    outer loop
      vertex 3 -1.02862 1.41578
      vertex 3 -0.843069 -1.53354
      vertex 3 -0.843069 1.53354
    endloop
  endfacet
  facet normal 1 0 0
    outer loop
      vertex 3 -1.02862 1.41578
      vertex 3 -1.02862 -1.41578
      vertex 3 -0.843069 -1.53354
    endloop
  endfacet
  facet normal 1 -0 0
    outer loop
      vertex 3 -1.19796 1.27569
      vertex 3 -1.02862 -1.41578
      vertex 3 -1.02862 1.41578
    endloop
  endfacet
  facet normal 1 0 0
    outer loop
      vertex 3 -1.19796 1.27569
      vertex 3 -1.19796 -1.2757
      vertex 3 -1.02862 -1.41578
    endloop
  endfacet
  facet normal 1 -0 0
    outer loop
      vertex 3 -1.3484 1.11549
      vertex 3 -1.19796 -1.2757
      vertex 3 -1.19796 1.27569
    endloop
  endfacet
  facet normal 1 0 0
    outer loop
      vertex 3 -1.3484 1.11549
      vertex 3 -1.3484 -1.11549
      vertex 3 -1.19796 -1.2757
    endloop
  endfacet
  facet normal 1 -0 0
    outer loop
      vertex 3 -1.47757 0.937696
      vertex 3 -1.3484 -1.11549
      vertex 3 -1.3484 1.11549
    endloop
  endfacet
  facet normal 1 0 0
    outer loop
      vertex 3 -1.47757 0.937696
      vertex 3 -1.47757 -0.937697
      vertex 3 -1.3484 -1.11549
    endloop
  endfacet
  facet normal 1 -0 0
    outer loop
      vertex 3 -1.58345 0.745113
      vertex 3 -1.47757 -0.937697
      vertex 3 -1.47757 0.937696
    endloop
  endfacet
  facet normal 1 0 0
    outer loop
      vertex 3 -1.58345 0.745113
      vertex 3 -1.58345 -0.745114
      vertex 3 -1.47757 -0.937697
    endloop
  endfacet
  facet normal 1 -0 0
    outer loop
      vertex 3 -1.66435 0.540779
      vertex 3 -1.58345 -0.745114
      vertex 3 -1.58345 0.745113
    endloop
  endfacet
  facet normal 1 0 0
    outer loop
      vertex 3 -1.66435 0.540779
      vertex 3 -1.66435 -0.54078
      vertex 3 -1.58345 -0.745114
    endloop
  endfacet
  facet normal 1 -0 0
    outer loop
      vertex 3 -1.719 0.327917
      vertex 3 -1.66435 -0.54078
      vertex 3 -1.66435 0.540779
    endloop
  endfacet
  facet normal 1 0 0
    outer loop
      vertex 3 -1.719 0.327917
      vertex 3 -1.719 -0.327918
      vertex 3 -1.66435 -0.54078
    endloop
  endfacet
  facet normal 1 -0 0
    outer loop
      vertex 3 -1.74655 0.109883
      vertex 3 -1.719 -0.327918
      vertex 3 -1.719 0.327917
    endloop
  endfacet
  facet normal 1 0 0
    outer loop
      vertex 3 -1.719 -0.327918
      vertex 3 -1.74655 0.109883
      vertex 3 -1.74655 -0.109884
    endloop
  endfacet
  facet normal 0 -0.876307 -0.481752
    outer loop
      vertex 0 -1.47757 -0.937697
      vertex 3 -1.58345 -0.745114
      vertex 0 -1.58345 -0.745114
    endloop
  endfacet
  facet normal 0 -0.876307 -0.481752
    outer loop
      vertex 3 -1.58345 -0.745114
      vertex 0 -1.47757 -0.937697
      vertex 3 -1.47757 -0.937697
    endloop
  endfacet
  facet normal 0 -0.929776 -0.368126
    outer loop
      vertex 0 -1.58345 -0.745114
      vertex 3 -1.66435 -0.54078
      vertex 0 -1.66435 -0.54078
    endloop
  endfacet
  facet normal 0 -0.929776 -0.368126
    outer loop
      vertex 3 -1.66435 -0.54078
      vertex 0 -1.58345 -0.745114
      vertex 3 -1.58345 -0.745114
    endloop
  endfacet
  facet normal 0 -0.968584 -0.248688
    outer loop
      vertex 0 -1.66435 -0.54078
      vertex 3 -1.719 -0.327918
      vertex 0 -1.719 -0.327918
    endloop
  endfacet
  facet normal 0 -0.968584 -0.248688
    outer loop
      vertex 3 -1.719 -0.327918
      vertex 0 -1.66435 -0.54078
      vertex 3 -1.66435 -0.54078
    endloop
  endfacet
  facet normal 0 -0.809017 -0.587786
    outer loop
      vertex 0 -1.3484 -1.11549
      vertex 3 -1.47757 -0.937697
      vertex 0 -1.47757 -0.937697
    endloop
  endfacet
  facet normal 0 -0.809017 -0.587786
    outer loop
      vertex 3 -1.47757 -0.937697
      vertex 0 -1.3484 -1.11549
      vertex 3 -1.3484 -1.11549
    endloop
  endfacet
  facet normal 0 0.309014 -0.951057
    outer loop
      vertex 0 0.435206 -1.69502
      vertex 3 0.644217 -1.62711
      vertex 3 0.435206 -1.69502
    endloop
  endfacet
  facet normal 0 0.309014 -0.951057
    outer loop
      vertex 3 0.644217 -1.62711
      vertex 0 0.435206 -1.69502
      vertex 0 0.644217 -1.62711
    endloop
  endfacet
  facet normal 0 0.637422 -0.770514
    outer loop
      vertex 0 1.02862 -1.41578
      vertex 3 1.19796 -1.2757
      vertex 3 1.02862 -1.41578
    endloop
  endfacet
  facet normal 0 0.637422 -0.770514
    outer loop
      vertex 3 1.19796 -1.2757
      vertex 0 1.02862 -1.41578
      vertex 0 1.19796 -1.2757
    endloop
  endfacet
  facet normal 0 0.809017 0.587786
    outer loop
      vertex 3 1.47757 0.937696
      vertex 0 1.3484 1.11549
      vertex 3 1.3484 1.11549
    endloop
  endfacet
  facet normal 0 0.809017 0.587786
    outer loop
      vertex 0 1.3484 1.11549
      vertex 3 1.47757 0.937696
      vertex 0 1.47757 0.937696
    endloop
  endfacet
  facet normal 0 -0.425782 -0.904826
    outer loop
      vertex 0 -0.843069 -1.53354
      vertex 3 -0.644218 -1.62711
      vertex 3 -0.843069 -1.53354
    endloop
  endfacet
  facet normal -0 -0.425782 -0.904826
    outer loop
      vertex 3 -0.644218 -1.62711
      vertex 0 -0.843069 -1.53354
      vertex 0 -0.644218 -1.62711
    endloop
  endfacet
  facet normal 0 -0.309014 -0.951057
    outer loop
      vertex 0 -0.644218 -1.62711
      vertex 3 -0.435207 -1.69502
      vertex 3 -0.644218 -1.62711
    endloop
  endfacet
  facet normal -0 -0.309014 -0.951057
    outer loop
      vertex 3 -0.435207 -1.69502
      vertex 0 -0.644218 -1.62711
      vertex 0 -0.435207 -1.69502
    endloop
  endfacet
  facet normal 0 -0.187383 -0.982287
    outer loop
      vertex 0 -0.435207 -1.69502
      vertex 3 -0.219334 -1.7362
      vertex 3 -0.435207 -1.69502
    endloop
  endfacet
  facet normal -0 -0.187383 -0.982287
    outer loop
      vertex 3 -0.219334 -1.7362
      vertex 0 -0.435207 -1.69502
      vertex 0 -0.219334 -1.7362
    endloop
  endfacet
  facet normal 0 -0.0627878 -0.998027
    outer loop
      vertex 0 -0.219334 -1.7362
      vertex 3 0 -1.75
      vertex 3 -0.219334 -1.7362
    endloop
  endfacet
  facet normal -0 -0.0627878 -0.998027
    outer loop
      vertex 3 0 -1.75
      vertex 0 -0.219334 -1.7362
      vertex 0 0 -1.75
    endloop
  endfacet
  facet normal 0 -1 0
    outer loop
      vertex 0 -1.74655 -0.109884
      vertex 3 -1.74655 0.109883
      vertex 0 -1.74655 0.109883
    endloop
  endfacet
  facet normal 0 -1 -0
    outer loop
      vertex 3 -1.74655 0.109883
      vertex 0 -1.74655 -0.109884
      vertex 3 -1.74655 -0.109884
    endloop
  endfacet
  facet normal 0 -0.929776 0.368126
    outer loop
      vertex 0 -1.66435 0.540779
      vertex 3 -1.58345 0.745113
      vertex 0 -1.58345 0.745113
    endloop
  endfacet
  facet normal 0 -0.929776 0.368126
    outer loop
      vertex 3 -1.58345 0.745113
      vertex 0 -1.66435 0.540779
      vertex 3 -1.66435 0.540779
    endloop
  endfacet
  facet normal 0 -0.637422 0.770514
    outer loop
      vertex 0 -1.02862 1.41578
      vertex 3 -1.19796 1.27569
      vertex 3 -1.02862 1.41578
    endloop
  endfacet
  facet normal 0 -0.637422 0.770514
    outer loop
      vertex 3 -1.19796 1.27569
      vertex 0 -1.02862 1.41578
      vertex 0 -1.19796 1.27569
    endloop
  endfacet
  facet normal 0 -0.0627922 0.998027
    outer loop
      vertex 0 0 1.75
      vertex 3 -0.219334 1.7362
      vertex 3 0 1.75
    endloop
  endfacet
  facet normal 0 -0.0627922 0.998027
    outer loop
      vertex 3 -0.219334 1.7362
      vertex 0 0 1.75
      vertex 0 -0.219334 1.7362
    endloop
  endfacet
  facet normal 0 -0.72897 -0.684546
    outer loop
      vertex 0 -1.19796 -1.2757
      vertex 3 -1.3484 -1.11549
      vertex 0 -1.3484 -1.11549
    endloop
  endfacet
  facet normal 0 -0.72897 -0.684546
    outer loop
      vertex 3 -1.3484 -1.11549
      vertex 0 -1.19796 -1.2757
      vertex 3 -1.19796 -1.2757
    endloop
  endfacet
  facet normal 0 -0.637422 -0.770514
    outer loop
      vertex 0 -1.19796 -1.2757
      vertex 3 -1.02862 -1.41578
      vertex 3 -1.19796 -1.2757
    endloop
  endfacet
  facet normal -0 -0.637422 -0.770514
    outer loop
      vertex 3 -1.02862 -1.41578
      vertex 0 -1.19796 -1.2757
      vertex 0 -1.02862 -1.41578
    endloop
  endfacet
  facet normal 0 -0.535826 -0.844328
    outer loop
      vertex 0 -1.02862 -1.41578
      vertex 3 -0.843069 -1.53354
      vertex 3 -1.02862 -1.41578
    endloop
  endfacet
  facet normal -0 -0.535826 -0.844328
    outer loop
      vertex 3 -0.843069 -1.53354
      vertex 0 -1.02862 -1.41578
      vertex 0 -0.843069 -1.53354
    endloop
  endfacet
  facet normal 0 -0.992114 0.125337
    outer loop
      vertex 0 -1.74655 0.109883
      vertex 3 -1.719 0.327917
      vertex 0 -1.719 0.327917
    endloop
  endfacet
  facet normal 0 -0.992114 0.125337
    outer loop
      vertex 3 -1.719 0.327917
      vertex 0 -1.74655 0.109883
      vertex 3 -1.74655 0.109883
    endloop
  endfacet
  facet normal 0 -0.72897 0.684546
    outer loop
      vertex 0 -1.3484 1.11549
      vertex 3 -1.19796 1.27569
      vertex 0 -1.19796 1.27569
    endloop
  endfacet
  facet normal 0 -0.72897 0.684546
    outer loop
      vertex 3 -1.19796 1.27569
      vertex 0 -1.3484 1.11549
      vertex 3 -1.3484 1.11549
    endloop
  endfacet
  facet normal 0 -0.535826 0.844328
    outer loop
      vertex 0 -0.843069 1.53354
      vertex 3 -1.02862 1.41578
      vertex 3 -0.843069 1.53354
    endloop
  endfacet
  facet normal 0 -0.535826 0.844328
    outer loop
      vertex 3 -1.02862 1.41578
      vertex 0 -0.843069 1.53354
      vertex 0 -1.02862 1.41578
    endloop
  endfacet
  facet normal 0 -0.425782 0.904826
    outer loop
      vertex 0 -0.644218 1.62711
      vertex 3 -0.843069 1.53354
      vertex 3 -0.644218 1.62711
    endloop
  endfacet
  facet normal 0 -0.425782 0.904826
    outer loop
      vertex 3 -0.843069 1.53354
      vertex 0 -0.644218 1.62711
      vertex 0 -0.843069 1.53354
    endloop
  endfacet
  facet normal 0 -0.187383 0.982287
    outer loop
      vertex 0 -0.219334 1.7362
      vertex 3 -0.435207 1.69502
      vertex 3 -0.219334 1.7362
    endloop
  endfacet
  facet normal 0 -0.187383 0.982287
    outer loop
      vertex 3 -0.435207 1.69502
      vertex 0 -0.219334 1.7362
      vertex 0 -0.435207 1.69502
    endloop
  endfacet
  facet normal 0 -0.968584 0.248688
    outer loop
      vertex 0 -1.719 0.327917
      vertex 3 -1.66435 0.540779
      vertex 0 -1.66435 0.540779
    endloop
  endfacet
  facet normal 0 -0.968584 0.248688
    outer loop
      vertex 3 -1.66435 0.540779
      vertex 0 -1.719 0.327917
      vertex 3 -1.719 0.327917
    endloop
  endfacet
  facet normal 0 -0.876307 0.481752
    outer loop
      vertex 0 -1.58345 0.745113
      vertex 3 -1.47757 0.937696
      vertex 0 -1.47757 0.937696
    endloop
  endfacet
  facet normal 0 -0.876307 0.481752
    outer loop
      vertex 3 -1.47757 0.937696
      vertex 0 -1.58345 0.745113
      vertex 3 -1.58345 0.745113
    endloop
  endfacet
  facet normal 0 -0.809017 0.587786
    outer loop
      vertex 0 -1.47757 0.937696
      vertex 3 -1.3484 1.11549
      vertex 0 -1.3484 1.11549
    endloop
  endfacet
  facet normal 0 -0.809017 0.587786
    outer loop
      vertex 3 -1.3484 1.11549
      vertex 0 -1.47757 0.937696
      vertex 3 -1.47757 0.937696
    endloop
  endfacet
endsolid OpenSCAD_Model
